<?xml version="1.0" encoding="UTF-8"?>
<svg xmlns="http://www.w3.org/2000/svg"
     xmlns:xlink="http://www.w3.org/1999/xlink"
     xmlns:gadfly="http://www.gadflyjl.org/ns"
     version="1.2"
     width="141.42mm" height="100mm" viewBox="0 0 141.42 100"
     stroke="none"
     fill="#000000"
     stroke-width="0.3"
     font-size="3.88"
>
<defs>
  <marker id="arrow" markerWidth="15" markerHeight="7" refX="5" refY="3.5" orient="auto" markerUnits="strokeWidth">
    <path d="M0,0 L15,3.5 L0,7 z" stroke="context-stroke" fill="context-stroke"/>
  </marker>
</defs>
<g class="plotroot xscalable yscalable" id="img-b2bdd5a3-1">
  <g class="guide xlabels" font-size="4.23" font-family="'PT Sans Caption','Helvetica Neue','Helvetica',sans-serif" fill="#6C606B" id="img-b2bdd5a3-2">
    <g transform="translate(14.67,90.93)">
      <g class="primitive">
        <text text-anchor="middle" dy="0.6em">0</text>
      </g>
    </g>
    <g transform="translate(67.69,90.93)">
      <g class="primitive">
        <text text-anchor="middle" dy="0.6em">50</text>
      </g>
    </g>
    <g transform="translate(120.7,90.93)">
      <g class="primitive">
        <text text-anchor="middle" dy="0.6em">100</text>
      </g>
    </g>
  </g>
  <g class="guide colorkey" id="img-b2bdd5a3-3">
    <g fill="#4C404B" font-size="2.82" font-family="'PT Sans','Helvetica Neue','Helvetica',sans-serif" id="img-b2bdd5a3-4">
      <g transform="translate(127.31,46.08)" id="img-b2bdd5a3-5">
        <g class="primitive">
          <text dy="0.35em">Signal 1</text>
        </g>
      </g>
      <g transform="translate(127.31,49.69)" id="img-b2bdd5a3-6">
        <g class="primitive">
          <text dy="0.35em">Signal 2</text>
        </g>
      </g>
      <g transform="translate(127.31,53.3)" id="img-b2bdd5a3-7">
        <g class="primitive">
          <text dy="0.35em">Signal 3</text>
        </g>
      </g>
      <g transform="translate(127.31,56.91)" id="img-b2bdd5a3-8">
        <g class="primitive">
          <text dy="0.35em">Signal 4</text>
        </g>
      </g>
    </g>
    <g stroke-width="0" id="img-b2bdd5a3-9">
      <g stroke="#000000" stroke-opacity="0.000" fill-opacity="1" fill="#FFA500" id="img-b2bdd5a3-10">
        <g transform="translate(124.51,56.91)" id="img-b2bdd5a3-11">
          <circle cx="0" cy="0" r="0.9" class="primitive"/>
        </g>
      </g>
      <g stroke="#000000" stroke-opacity="0.000" fill-opacity="1" fill="#008000" id="img-b2bdd5a3-12">
        <g transform="translate(124.51,53.3)" id="img-b2bdd5a3-13">
          <circle cx="0" cy="0" r="0.9" class="primitive"/>
        </g>
      </g>
      <g stroke="#000000" stroke-opacity="0.000" fill-opacity="1" fill="#0000FF" id="img-b2bdd5a3-14">
        <g transform="translate(124.51,49.69)" id="img-b2bdd5a3-15">
          <circle cx="0" cy="0" r="0.9" class="primitive"/>
        </g>
      </g>
      <g stroke="#000000" stroke-opacity="0.000" fill-opacity="1" fill="#FF0000" id="img-b2bdd5a3-16">
        <g transform="translate(124.51,46.08)" id="img-b2bdd5a3-17">
          <circle cx="0" cy="0" r="0.9" class="primitive"/>
        </g>
      </g>
    </g>
    <g fill="#362A35" font-size="3.88" font-family="'PT Sans','Helvetica Neue','Helvetica',sans-serif" stroke="#000000" stroke-opacity="0.000" id="img-b2bdd5a3-18">
      <g transform="translate(123.7,42.78)" id="img-b2bdd5a3-19">
        <g class="primitive">
          <text dy="-0em"></text>
        </g>
      </g>
    </g>
  </g>
  <g clip-path="url(#img-b2bdd5a3-20)">
    <g id="img-b2bdd5a3-21">
      <g pointer-events="visible" stroke-width="0.3" fill="#000000" fill-opacity="0.000" stroke="#000000" stroke-opacity="0.000" class="guide background" id="img-b2bdd5a3-22">
        <g transform="translate(67.69,50.75)" id="img-b2bdd5a3-23">
          <path d="M-55.01,-39.18 L55.01,-39.18 55.01,39.18 -55.01,39.18  z" class="primitive"/>
        </g>
      </g>
      <g class="guide ygridlines xfixed" stroke-dasharray="0.5,0.5" stroke-width="0.2" stroke="#D0D0E0" id="img-b2bdd5a3-24">
        <g transform="translate(67.69,87.93)" id="img-b2bdd5a3-25">
          <path fill="none" d="M-55.01,0 L55.01,0 " class="primitive"/>
        </g>
        <g transform="translate(67.69,50.75)" id="img-b2bdd5a3-26">
          <path fill="none" d="M-55.01,0 L55.01,0 " class="primitive"/>
        </g>
        <g transform="translate(67.69,13.56)" id="img-b2bdd5a3-27">
          <path fill="none" d="M-55.01,0 L55.01,0 " class="primitive"/>
        </g>
      </g>
      <g class="guide xgridlines yfixed" stroke-dasharray="0.5,0.5" stroke-width="0.2" stroke="#D0D0E0" id="img-b2bdd5a3-28">
        <g transform="translate(14.67,50.75)" id="img-b2bdd5a3-29">
          <path fill="none" d="M0,-39.18 L0,39.18 " class="primitive"/>
        </g>
        <g transform="translate(67.69,50.75)" id="img-b2bdd5a3-30">
          <path fill="none" d="M0,-39.18 L0,39.18 " class="primitive"/>
        </g>
        <g transform="translate(120.7,50.75)" id="img-b2bdd5a3-31">
          <path fill="none" d="M0,-39.18 L0,39.18 " class="primitive"/>
        </g>
      </g>
      <g class="plotpanel" id="img-b2bdd5a3-32">
        <metadata>
          <boundingbox value="12.674072265625mm 11.563373480902783mm 110.02948069477479mm 78.3632568359375mm"/>
          <unitbox value="-1.8862678444661682 1.0268950027889776 103.77253568893235 -1.0537900055779552"/>
        </metadata>
        <g stroke-width="0.71" fill="#000000" fill-opacity="0.000" class="geometry" id="img-b2bdd5a3-33">
          <g class="color_RGBA{N0f8}(1.0,0.647,0.0,1.0)" stroke-dasharray="none" stroke="#FFA500" id="img-b2bdd5a3-34">
            <g transform="translate(68.22,54.02)" id="img-b2bdd5a3-35">
              <path fill="none" d="M-52.48,3.73 L-51.42,29.02 -50.36,4.3 -49.3,21.73 -48.24,-24.33 -47.18,23.93 -46.12,-31.76 -45.06,5.14 -44,15.9 -42.94,24.12 -41.88,27.56 -40.82,9.36 -39.76,-14.77 -38.7,-0.84 -37.64,-32.23 -36.58,-18.54 -35.52,27.21 -34.46,32.36 -33.4,27.7 -32.34,-13.29 -31.28,26.72 -30.22,-15.51 -29.16,-12.14 -28.1,4.01 -27.04,26.79 -25.98,17.59 -24.92,-13.52 -23.86,-9.97 -22.8,-36.56 -21.74,-35.72 -20.68,-10.12 -19.62,-25.79 -18.56,-24.25 -17.49,10.37 -16.43,-25.82 -15.37,28.81 -14.31,-20.57 -13.25,-29.02 -12.19,7.04 -11.13,4.86 -10.07,8.25 -9.01,26.86 -7.95,-0.24 -6.89,13.74 -5.83,-8.29 -4.77,30.16 -3.71,15.85 -2.65,-34.87 -1.59,-10.18 -0.53,-19.44 0.53,-31.6 1.59,-36.11 2.65,-1.97 3.71,14.1 4.77,31.54 5.83,-2.49 6.89,-6.57 7.95,21.68 9.01,11.21 10.07,-22.96 11.13,8.45 12.19,-36.58 13.25,-29.63 14.31,-30.96 15.37,-11.37 16.43,-16.09 17.49,16.17 18.56,6.36 19.62,33.85 20.68,17.55 21.74,32.9 22.8,-39.82 23.86,-33.99 24.92,-6.2 25.98,-6.38 27.04,-3.39 28.1,15.18 29.16,-0.27 30.22,32.67 31.28,18.73 32.34,15.53 33.4,28.49 34.46,11.35 35.52,-1.57 36.58,-20.53 37.64,21.28 38.7,18.67 39.76,-6.11 40.82,-3.89 41.88,19.06 42.94,-29.88 44,24.17 45.06,5.57 46.12,-32.43 47.18,19.92 48.24,-17.82 49.3,-0.47 50.36,-8.84 51.42,27.07 52.48,-18.91 " class="primitive"/>
            </g>
          </g>
        </g>
        <g stroke-width="0.71" fill="#000000" fill-opacity="0.000" class="geometry" id="img-b2bdd5a3-36">
          <g class="color_RGBA{N0f8}(0.0,0.502,0.0,1.0)" stroke-dasharray="none" stroke="#008000" id="img-b2bdd5a3-37">
            <g transform="translate(68.22,50.77)" id="img-b2bdd5a3-38">
              <path fill="none" d="M-52.48,-17.85 L-51.42,-31.31 -50.36,-37.11 -49.3,-33.83 -48.24,-22.28 -47.18,-5.27 -46.12,13.02 -45.06,28.12 -44,36.32 -42.94,35.63 -41.88,26.21 -40.82,10.37 -39.76,-8.02 -38.7,-24.45 -37.64,-34.9 -36.58,-36.81 -35.52,-29.71 -34.46,-15.35 -33.4,2.77 -32.34,20.2 -31.28,32.69 -30.22,37.16 -29.16,32.53 -28.1,19.93 -27.04,2.44 -25.98,-15.65 -24.92,-29.91 -23.86,-36.86 -22.8,-34.78 -21.74,-24.2 -20.68,-7.7 -19.62,10.68 -18.56,26.44 -17.49,35.72 -16.43,36.25 -15.37,27.9 -14.31,12.71 -13.25,-5.6 -12.19,-22.54 -11.13,-33.97 -10.07,-37.09 -9.01,-31.13 -7.95,-17.56 -6.89,0.31 -5.83,18.09 -4.77,31.44 -3.71,37.09 -2.65,33.65 -1.59,21.96 -0.53,4.9 0.53,-13.37 1.59,-28.38 2.65,-36.44 3.71,-35.58 4.77,-26.02 5.83,-10.1 6.89,8.3 7.95,24.65 9.01,34.97 10.07,36.71 11.13,29.47 12.19,15 13.25,-3.15 14.31,-20.53 15.37,-32.89 16.43,-37.2 17.49,-32.41 18.56,-19.7 19.62,-2.16 20.68,15.9 21.74,30.06 22.8,36.85 23.86,34.62 24.92,23.9 25.98,7.33 27.04,-11.04 28.1,-26.72 29.16,-35.86 30.22,-36.22 31.28,-27.73 32.34,-12.45 33.4,5.87 34.46,22.75 35.52,34.05 36.58,37.01 37.64,30.9 38.7,17.22 39.76,-0.68 40.82,-18.42 41.88,-31.66 42.94,-37.15 44,-33.55 45.06,-21.74 46.12,-4.62 47.18,13.63 48.24,28.54 49.3,36.46 50.36,35.44 51.42,25.74 52.48,9.73 " class="primitive"/>
            </g>
          </g>
        </g>
        <g stroke-width="0.71" fill="#000000" fill-opacity="0.000" class="geometry" id="img-b2bdd5a3-39">
          <g class="color_RGBA{N0f8}(0.0,0.0,1.0,1.0)" stroke-dasharray="none" stroke="#0000FF" id="img-b2bdd5a3-40">
            <g transform="translate(68.22,49.89)" id="img-b2bdd5a3-41">
              <path fill="none" d="M-52.48,-10.13 L-51.42,-20.14 -50.36,-28.27 -49.3,-33.8 -48.24,-36.23 -47.18,-35.35 -46.12,-31.24 -45.06,-24.26 -44,-15.03 -42.94,-4.39 -41.88,6.72 -40.82,17.31 -39.76,26.43 -38.7,33.26 -37.64,37.2 -36.58,37.9 -35.52,35.28 -34.46,29.59 -33.4,21.33 -32.34,11.25 -31.28,0.23 -30.22,-10.73 -29.16,-20.65 -28.1,-28.65 -27.04,-34.02 -25.98,-36.27 -24.92,-35.21 -23.86,-30.92 -22.8,-23.79 -21.74,-14.47 -20.68,-3.77 -19.62,7.34 -18.56,17.87 -17.49,26.88 -16.43,33.57 -15.37,37.33 -14.31,37.84 -13.25,35.04 -12.19,29.19 -11.13,20.81 -10.07,10.64 -9.01,-0.39 -7.95,-11.32 -6.89,-21.16 -5.83,-29.03 -4.77,-34.23 -3.71,-36.3 -2.65,-35.05 -1.59,-30.59 -0.53,-23.32 0.53,-13.89 1.59,-3.15 2.65,7.95 3.71,18.42 4.77,27.32 5.83,33.86 6.89,37.45 7.95,37.77 9.01,34.79 10.07,28.78 11.13,20.28 12.19,10.04 13.25,-1.02 14.31,-11.91 15.37,-21.66 16.43,-29.4 17.49,-34.43 18.56,-36.32 19.62,-34.88 20.68,-30.25 21.74,-22.84 22.8,-13.32 23.86,-2.53 24.92,8.57 25.98,18.97 27.04,27.76 28.1,34.14 29.16,37.55 30.22,37.68 31.28,34.53 32.34,28.36 33.4,19.74 34.46,9.43 35.52,-1.64 36.58,-12.49 37.64,-22.15 38.7,-29.76 39.76,-34.63 40.82,-36.32 41.88,-34.7 42.94,-29.9 44,-22.36 45.06,-12.74 46.12,-1.9 47.18,9.18 48.24,19.51 49.3,28.19 50.36,34.42 51.42,37.65 52.48,37.59 " class="primitive"/>
            </g>
          </g>
        </g>
        <g stroke-width="0.71" fill="#000000" fill-opacity="0.000" class="geometry" id="img-b2bdd5a3-42">
          <g class="color_RGBA{N0f8}(1.0,0.0,0.0,1.0)" stroke-dasharray="none" stroke="#FF0000" id="img-b2bdd5a3-43">
            <g transform="translate(68.22,45.6)" id="img-b2bdd5a3-44">
              <path fill="none" d="M-52.48,3.29 L-51.42,1.44 -50.36,-0.41 -49.3,-2.24 -48.24,-4.05 -47.18,-5.84 -46.12,-7.6 -45.06,-9.33 -44,-11.03 -42.94,-12.68 -41.88,-14.29 -40.82,-15.85 -39.76,-17.35 -38.7,-18.81 -37.64,-20.2 -36.58,-21.52 -35.52,-22.79 -34.46,-23.98 -33.4,-25.1 -32.34,-26.14 -31.28,-27.1 -30.22,-27.99 -29.16,-28.79 -28.1,-29.51 -27.04,-30.14 -25.98,-30.68 -24.92,-31.13 -23.86,-31.49 -22.8,-31.76 -21.74,-31.94 -20.68,-32.03 -19.62,-32.02 -18.56,-31.92 -17.49,-31.72 -16.43,-31.44 -15.37,-31.06 -14.31,-30.59 -13.25,-30.04 -12.19,-29.39 -11.13,-28.66 -10.07,-27.85 -9.01,-26.95 -7.95,-25.97 -6.89,-24.91 -5.83,-23.78 -4.77,-22.58 -3.71,-21.31 -2.65,-19.97 -1.59,-18.57 -0.53,-17.1 0.53,-15.59 1.59,-14.02 2.65,-12.4 3.71,-10.74 4.77,-9.04 5.83,-7.31 6.89,-5.54 7.95,-3.75 9.01,-1.93 10.07,-0.1 11.13,1.75 12.19,3.6 13.25,5.46 14.31,7.32 15.37,9.17 16.43,11.01 17.49,12.84 18.56,14.65 19.62,16.43 20.68,18.19 21.74,19.91 22.8,21.6 23.86,23.25 24.92,24.85 25.98,26.4 27.04,27.9 28.1,29.34 29.16,30.72 30.22,32.04 31.28,33.29 32.34,34.47 33.4,35.57 34.46,36.6 35.52,37.55 36.58,38.42 37.64,39.21 38.7,39.91 39.76,40.53 40.82,41.06 41.88,41.49 42.94,41.84 44,42.09 45.06,42.26 46.12,42.33 47.18,42.3 48.24,42.19 49.3,41.98 50.36,41.68 51.42,41.28 52.48,40.8 " class="primitive"/>
            </g>
          </g>
        </g>
      </g>
    </g>
  </g>
  <g class="guide ylabels" font-size="4.23" font-family="'PT Sans Caption','Helvetica Neue','Helvetica',sans-serif" fill="#6C606B" id="img-b2bdd5a3-45">
    <g transform="translate(11.67,87.93)" id="img-b2bdd5a3-46">
      <g class="primitive">
        <text text-anchor="end" dy="0.35em">0.0</text>
      </g>
    </g>
    <g transform="translate(11.67,50.75)" id="img-b2bdd5a3-47">
      <g class="primitive">
        <text text-anchor="end" dy="0.35em">0.5</text>
      </g>
    </g>
    <g transform="translate(11.67,13.56)" id="img-b2bdd5a3-48">
      <g class="primitive">
        <text text-anchor="end" dy="0.35em">1.0</text>
      </g>
    </g>
  </g>
  <g font-size="4.94" font-family="'PT Sans','Helvetica Neue','Helvetica',sans-serif" fill="#564A55" stroke="#000000" stroke-opacity="0.000" id="img-b2bdd5a3-49">
    <g transform="translate(67.69,5)" id="img-b2bdd5a3-50">
      <g class="primitive">
        <text text-anchor="middle" dy="0.6em">Original signals</text>
      </g>
    </g>
  </g>
</g>
<defs>
  <clipPath id="img-b2bdd5a3-20">
    <path d="M12.67,11.56 L122.7,11.56 122.7,89.93 12.67,89.93 " />
  </clipPath>
</defs>
</svg>
