<?xml version="1.0" encoding="UTF-8"?>
<svg xmlns="http://www.w3.org/2000/svg"
     xmlns:xlink="http://www.w3.org/1999/xlink"
     xmlns:gadfly="http://www.gadflyjl.org/ns"
     version="1.2"
     width="141.42mm" height="100mm" viewBox="0 0 141.42 100"
     stroke="none"
     fill="#000000"
     stroke-width="0.3"
     font-size="3.88"
>
<defs>
  <marker id="arrow" markerWidth="15" markerHeight="7" refX="5" refY="3.5" orient="auto" markerUnits="strokeWidth">
    <path d="M0,0 L15,3.5 L0,7 z" stroke="context-stroke" fill="context-stroke"/>
  </marker>
</defs>
<g class="plotroot xscalable yscalable" id="img-80c5147e-1">
  <g class="guide colorkey" id="img-80c5147e-2">
    <g font-size="3.53" font-family="'PT Sans','Helvetica Neue','Helvetica',sans-serif" fill="#4C404B" id="img-80c5147e-3">
      <g transform="translate(131.33,56.95)">
        <g class="primitive">
          <text dy="0.35em">0.5</text>
        </g>
      </g>
      <g transform="translate(131.33,64.69)">
        <g class="primitive">
          <text dy="0.35em">0.0</text>
        </g>
      </g>
      <g transform="translate(131.33,49.2)">
        <g class="primitive">
          <text dy="0.35em">1.0</text>
        </g>
      </g>
    </g>
    <g shape-rendering="crispEdges" fill-opacity="1" stroke="#000000" stroke-opacity="0.000" id="img-80c5147e-4">
      <g transform="translate(129.69,64.5)" fill="#008000">
        <path d="M-0.64,-0.19 L0.64,-0.19 0.64,0.19 -0.64,0.19  z" class="primitive"/>
      </g>
      <g transform="translate(129.69,64.11)" fill="#208600">
        <path d="M-0.64,-0.19 L0.64,-0.19 0.64,0.19 -0.64,0.19  z" class="primitive"/>
      </g>
      <g transform="translate(129.69,63.73)" fill="#328D00">
        <path d="M-0.64,-0.19 L0.64,-0.19 0.64,0.19 -0.64,0.19  z" class="primitive"/>
      </g>
      <g transform="translate(129.69,63.34)" fill="#409300">
        <path d="M-0.64,-0.19 L0.64,-0.19 0.64,0.19 -0.64,0.19  z" class="primitive"/>
      </g>
      <g transform="translate(129.69,62.95)" fill="#4D9A00">
        <path d="M-0.64,-0.19 L0.64,-0.19 0.64,0.19 -0.64,0.19  z" class="primitive"/>
      </g>
      <g transform="translate(129.69,62.56)" fill="#5AA000">
        <path d="M-0.64,-0.19 L0.64,-0.19 0.64,0.19 -0.64,0.19  z" class="primitive"/>
      </g>
      <g transform="translate(129.69,62.18)" fill="#66A700">
        <path d="M-0.64,-0.19 L0.64,-0.19 0.64,0.19 -0.64,0.19  z" class="primitive"/>
      </g>
      <g transform="translate(129.69,61.79)" fill="#72AD00">
        <path d="M-0.64,-0.19 L0.64,-0.19 0.64,0.19 -0.64,0.19  z" class="primitive"/>
      </g>
      <g transform="translate(129.69,61.4)" fill="#7DB300">
        <path d="M-0.64,-0.19 L0.64,-0.19 0.64,0.19 -0.64,0.19  z" class="primitive"/>
      </g>
      <g transform="translate(129.69,61.01)" fill="#88BA00">
        <path d="M-0.64,-0.19 L0.64,-0.19 0.64,0.19 -0.64,0.19  z" class="primitive"/>
      </g>
      <g transform="translate(129.69,60.63)" fill="#94C000">
        <path d="M-0.64,-0.19 L0.64,-0.19 0.64,0.19 -0.64,0.19  z" class="primitive"/>
      </g>
      <g transform="translate(129.69,60.24)" fill="#9FC700">
        <path d="M-0.64,-0.19 L0.64,-0.19 0.64,0.19 -0.64,0.19  z" class="primitive"/>
      </g>
      <g transform="translate(129.69,59.85)" fill="#AACE00">
        <path d="M-0.64,-0.19 L0.64,-0.19 0.64,0.19 -0.64,0.19  z" class="primitive"/>
      </g>
      <g transform="translate(129.69,59.47)" fill="#B5D400">
        <path d="M-0.64,-0.19 L0.64,-0.19 0.64,0.19 -0.64,0.19  z" class="primitive"/>
      </g>
      <g transform="translate(129.69,59.08)" fill="#C1DB00">
        <path d="M-0.64,-0.19 L0.64,-0.19 0.64,0.19 -0.64,0.19  z" class="primitive"/>
      </g>
      <g transform="translate(129.69,58.69)" fill="#CCE100">
        <path d="M-0.64,-0.19 L0.64,-0.19 0.64,0.19 -0.64,0.19  z" class="primitive"/>
      </g>
      <g transform="translate(129.69,58.3)" fill="#D7E800">
        <path d="M-0.64,-0.19 L0.64,-0.19 0.64,0.19 -0.64,0.19  z" class="primitive"/>
      </g>
      <g transform="translate(129.69,57.92)" fill="#E2EE00">
        <path d="M-0.64,-0.19 L0.64,-0.19 0.64,0.19 -0.64,0.19  z" class="primitive"/>
      </g>
      <g transform="translate(129.69,57.53)" fill="#EEF500">
        <path d="M-0.64,-0.19 L0.64,-0.19 0.64,0.19 -0.64,0.19  z" class="primitive"/>
      </g>
      <g transform="translate(129.69,57.14)" fill="#F9FC00">
        <path d="M-0.64,-0.19 L0.64,-0.19 0.64,0.19 -0.64,0.19  z" class="primitive"/>
      </g>
      <g transform="translate(129.69,56.75)" fill="#FFFA00">
        <path d="M-0.64,-0.19 L0.64,-0.19 0.64,0.19 -0.64,0.19  z" class="primitive"/>
      </g>
      <g transform="translate(129.69,56.37)" fill="#FFF100">
        <path d="M-0.64,-0.19 L0.64,-0.19 0.64,0.19 -0.64,0.19  z" class="primitive"/>
      </g>
      <g transform="translate(129.69,55.98)" fill="#FFE800">
        <path d="M-0.64,-0.19 L0.64,-0.19 0.64,0.19 -0.64,0.19  z" class="primitive"/>
      </g>
      <g transform="translate(129.69,55.59)" fill="#FFDE00">
        <path d="M-0.64,-0.19 L0.64,-0.19 0.64,0.19 -0.64,0.19  z" class="primitive"/>
      </g>
      <g transform="translate(129.69,55.2)" fill="#FFD500">
        <path d="M-0.64,-0.19 L0.64,-0.19 0.64,0.19 -0.64,0.19  z" class="primitive"/>
      </g>
      <g transform="translate(129.69,54.82)" fill="#FFCB00">
        <path d="M-0.64,-0.19 L0.64,-0.19 0.64,0.19 -0.64,0.19  z" class="primitive"/>
      </g>
      <g transform="translate(129.69,54.43)" fill="#FFC200">
        <path d="M-0.64,-0.19 L0.64,-0.19 0.64,0.19 -0.64,0.19  z" class="primitive"/>
      </g>
      <g transform="translate(129.69,54.04)" fill="#FFB800">
        <path d="M-0.64,-0.19 L0.64,-0.19 0.64,0.19 -0.64,0.19  z" class="primitive"/>
      </g>
      <g transform="translate(129.69,53.65)" fill="#FFAE00">
        <path d="M-0.64,-0.19 L0.64,-0.19 0.64,0.19 -0.64,0.19  z" class="primitive"/>
      </g>
      <g transform="translate(129.69,53.27)" fill="#FFA400">
        <path d="M-0.64,-0.19 L0.64,-0.19 0.64,0.19 -0.64,0.19  z" class="primitive"/>
      </g>
      <g transform="translate(129.69,52.88)" fill="#FF9A00">
        <path d="M-0.64,-0.19 L0.64,-0.19 0.64,0.19 -0.64,0.19  z" class="primitive"/>
      </g>
      <g transform="translate(129.69,52.49)" fill="#FF8F00">
        <path d="M-0.64,-0.19 L0.64,-0.19 0.64,0.19 -0.64,0.19  z" class="primitive"/>
      </g>
      <g transform="translate(129.69,52.11)" fill="#FF8400">
        <path d="M-0.64,-0.19 L0.64,-0.19 0.64,0.19 -0.64,0.19  z" class="primitive"/>
      </g>
      <g transform="translate(129.69,51.72)" fill="#FF7900">
        <path d="M-0.64,-0.19 L0.64,-0.19 0.64,0.19 -0.64,0.19  z" class="primitive"/>
      </g>
      <g transform="translate(129.69,51.33)" fill="#FF6D00">
        <path d="M-0.64,-0.19 L0.64,-0.19 0.64,0.19 -0.64,0.19  z" class="primitive"/>
      </g>
      <g transform="translate(129.69,50.94)" fill="#FF6000">
        <path d="M-0.64,-0.19 L0.64,-0.19 0.64,0.19 -0.64,0.19  z" class="primitive"/>
      </g>
      <g transform="translate(129.69,50.56)" fill="#FF5200">
        <path d="M-0.64,-0.19 L0.64,-0.19 0.64,0.19 -0.64,0.19  z" class="primitive"/>
      </g>
      <g transform="translate(129.69,50.17)" fill="#FF4200">
        <path d="M-0.64,-0.19 L0.64,-0.19 0.64,0.19 -0.64,0.19  z" class="primitive"/>
      </g>
      <g transform="translate(129.69,49.78)" fill="#FF2D00">
        <path d="M-0.64,-0.19 L0.64,-0.19 0.64,0.19 -0.64,0.19  z" class="primitive"/>
      </g>
      <g transform="translate(129.69,49.39)" fill="#FF0000">
        <path d="M-0.64,-0.19 L0.64,-0.19 0.64,0.19 -0.64,0.19  z" class="primitive"/>
      </g>
      <g stroke="#FFFFFF" stroke-width="0.2" id="img-80c5147e-5">
        <g transform="translate(129.69,56.95)">
          <path fill="none" d="M-0.64,0 L0.64,0 " class="primitive"/>
        </g>
        <g transform="translate(129.69,64.69)">
          <path fill="none" d="M-0.64,0 L0.64,0 " class="primitive"/>
        </g>
        <g transform="translate(129.69,49.2)">
          <path fill="none" d="M-0.64,0 L0.64,0 " class="primitive"/>
        </g>
      </g>
    </g>
    <g fill="#362A35" font-size="3.53" font-family="'PT Sans','Helvetica Neue','Helvetica',sans-serif" stroke="#000000" stroke-opacity="0.000" id="img-80c5147e-6">
      <g transform="translate(129.06,45.2)">
        <g class="primitive">
          <text dy="-0em"></text>
        </g>
      </g>
    </g>
  </g>
  <g clip-path="url(#img-80c5147e-7)">
    <g id="img-80c5147e-8">
      <g pointer-events="visible" stroke-width="0.3" fill="#000000" fill-opacity="0.000" stroke="#000000" stroke-opacity="0.000" class="guide background" id="img-80c5147e-9">
        <g transform="translate(66.03,52.95)" id="img-80c5147e-10">
          <path d="M-61.03,-24.41 L61.03,-24.41 61.03,24.41 -61.03,24.41  z" class="primitive"/>
        </g>
      </g>
      <g class="plotpanel" id="img-80c5147e-11">
        <metadata>
          <boundingbox value="5.0mm 28.536216219986017mm 122.05562001769145mm 48.82224800707658mm"/>
          <unitbox value="0.3305883277983474 0.3215172072865031 10.338823344403306 4.356965585426994"/>
        </metadata>
        <g shape-rendering="crispEdges" class="geometry" stroke="#000000" stroke-opacity="0.000" id="img-80c5147e-12">
          <g transform="translate(12.9,36.14)" id="img-80c5147e-13" fill="#F1F700" fill-opacity="1">
            <path d="M-5.9,-5.6 L5.9,-5.6 5.9,5.6 -5.9,5.6  z" class="primitive"/>
          </g>
          <g transform="translate(12.9,47.34)" id="img-80c5147e-14" fill="#148300" fill-opacity="1">
            <path d="M-5.9,-5.6 L5.9,-5.6 5.9,5.6 -5.9,5.6  z" class="primitive"/>
          </g>
          <g transform="translate(12.9,58.55)" id="img-80c5147e-15" fill="#75AF00" fill-opacity="1">
            <path d="M-5.9,-5.6 L5.9,-5.6 5.9,5.6 -5.9,5.6  z" class="primitive"/>
          </g>
          <g transform="translate(12.9,69.76)" id="img-80c5147e-16" fill="#509B00" fill-opacity="1">
            <path d="M-5.9,-5.6 L5.9,-5.6 5.9,5.6 -5.9,5.6  z" class="primitive"/>
          </g>
          <g transform="translate(24.71,36.14)" id="img-80c5147e-17" fill="#098100" fill-opacity="1">
            <path d="M-5.9,-5.6 L5.9,-5.6 5.9,5.6 -5.9,5.6  z" class="primitive"/>
          </g>
          <g transform="translate(24.71,47.34)" id="img-80c5147e-18" fill="#6AA900" fill-opacity="1">
            <path d="M-5.9,-5.6 L5.9,-5.6 5.9,5.6 -5.9,5.6  z" class="primitive"/>
          </g>
          <g transform="translate(24.71,58.55)" id="img-80c5147e-19" fill="#FF0000" fill-opacity="1">
            <path d="M-5.9,-5.6 L5.9,-5.6 5.9,5.6 -5.9,5.6  z" class="primitive"/>
          </g>
          <g transform="translate(24.71,69.76)" id="img-80c5147e-20" fill="#579E00" fill-opacity="1">
            <path d="M-5.9,-5.6 L5.9,-5.6 5.9,5.6 -5.9,5.6  z" class="primitive"/>
          </g>
          <g transform="translate(36.51,36.14)" id="img-80c5147e-21" fill="#008000" fill-opacity="1">
            <path d="M-5.9,-5.6 L5.9,-5.6 5.9,5.6 -5.9,5.6  z" class="primitive"/>
          </g>
          <g transform="translate(36.51,47.34)" id="img-80c5147e-22" fill="#6FAC00" fill-opacity="1">
            <path d="M-5.9,-5.6 L5.9,-5.6 5.9,5.6 -5.9,5.6  z" class="primitive"/>
          </g>
          <g transform="translate(36.51,58.55)" id="img-80c5147e-23" fill="#0F8200" fill-opacity="1">
            <path d="M-5.9,-5.6 L5.9,-5.6 5.9,5.6 -5.9,5.6  z" class="primitive"/>
          </g>
          <g transform="translate(36.51,69.76)" id="img-80c5147e-24" fill="#F7FA00" fill-opacity="1">
            <path d="M-5.9,-5.6 L5.9,-5.6 5.9,5.6 -5.9,5.6  z" class="primitive"/>
          </g>
          <g transform="translate(48.32,36.14)" id="img-80c5147e-25" fill="#579F00" fill-opacity="1">
            <path d="M-5.9,-5.6 L5.9,-5.6 5.9,5.6 -5.9,5.6  z" class="primitive"/>
          </g>
          <g transform="translate(48.32,47.34)" id="img-80c5147e-26" fill="#FF7C00" fill-opacity="1">
            <path d="M-5.9,-5.6 L5.9,-5.6 5.9,5.6 -5.9,5.6  z" class="primitive"/>
          </g>
          <g transform="translate(48.32,58.55)" id="img-80c5147e-27" fill="#158300" fill-opacity="1">
            <path d="M-5.9,-5.6 L5.9,-5.6 5.9,5.6 -5.9,5.6  z" class="primitive"/>
          </g>
          <g transform="translate(48.32,69.76)" id="img-80c5147e-28" fill="#589F00" fill-opacity="1">
            <path d="M-5.9,-5.6 L5.9,-5.6 5.9,5.6 -5.9,5.6  z" class="primitive"/>
          </g>
          <g transform="translate(60.13,36.14)" id="img-80c5147e-29" fill="#008000" fill-opacity="1">
            <path d="M-5.9,-5.6 L5.9,-5.6 5.9,5.6 -5.9,5.6  z" class="primitive"/>
          </g>
          <g transform="translate(60.13,47.34)" id="img-80c5147e-30" fill="#B9D600" fill-opacity="1">
            <path d="M-5.9,-5.6 L5.9,-5.6 5.9,5.6 -5.9,5.6  z" class="primitive"/>
          </g>
          <g transform="translate(60.13,58.55)" id="img-80c5147e-31" fill="#80B500" fill-opacity="1">
            <path d="M-5.9,-5.6 L5.9,-5.6 5.9,5.6 -5.9,5.6  z" class="primitive"/>
          </g>
          <g transform="translate(60.13,69.76)" id="img-80c5147e-32" fill="#FFDA00" fill-opacity="1">
            <path d="M-5.9,-5.6 L5.9,-5.6 5.9,5.6 -5.9,5.6  z" class="primitive"/>
          </g>
          <g transform="translate(71.93,36.14)" id="img-80c5147e-33" fill="#64A500" fill-opacity="1">
            <path d="M-5.9,-5.6 L5.9,-5.6 5.9,5.6 -5.9,5.6  z" class="primitive"/>
          </g>
          <g transform="translate(71.93,47.34)" id="img-80c5147e-34" fill="#6DAA00" fill-opacity="1">
            <path d="M-5.9,-5.6 L5.9,-5.6 5.9,5.6 -5.9,5.6  z" class="primitive"/>
          </g>
          <g transform="translate(71.93,58.55)" id="img-80c5147e-35" fill="#79B100" fill-opacity="1">
            <path d="M-5.9,-5.6 L5.9,-5.6 5.9,5.6 -5.9,5.6  z" class="primitive"/>
          </g>
          <g transform="translate(71.93,69.76)" id="img-80c5147e-36" fill="#008000" fill-opacity="1">
            <path d="M-5.9,-5.6 L5.9,-5.6 5.9,5.6 -5.9,5.6  z" class="primitive"/>
          </g>
          <g transform="translate(83.74,36.14)" id="img-80c5147e-37" fill="#0B8200" fill-opacity="1">
            <path d="M-5.9,-5.6 L5.9,-5.6 5.9,5.6 -5.9,5.6  z" class="primitive"/>
          </g>
          <g transform="translate(83.74,47.34)" id="img-80c5147e-38" fill="#008000" fill-opacity="1">
            <path d="M-5.9,-5.6 L5.9,-5.6 5.9,5.6 -5.9,5.6  z" class="primitive"/>
          </g>
          <g transform="translate(83.74,58.55)" id="img-80c5147e-39" fill="#D2E500" fill-opacity="1">
            <path d="M-5.9,-5.6 L5.9,-5.6 5.9,5.6 -5.9,5.6  z" class="primitive"/>
          </g>
          <g transform="translate(83.74,69.76)" id="img-80c5147e-40" fill="#569E00" fill-opacity="1">
            <path d="M-5.9,-5.6 L5.9,-5.6 5.9,5.6 -5.9,5.6  z" class="primitive"/>
          </g>
          <g transform="translate(95.54,36.14)" id="img-80c5147e-41" fill="#FF9600" fill-opacity="1">
            <path d="M-5.9,-5.6 L5.9,-5.6 5.9,5.6 -5.9,5.6  z" class="primitive"/>
          </g>
          <g transform="translate(95.54,47.34)" id="img-80c5147e-42" fill="#1C8500" fill-opacity="1">
            <path d="M-5.9,-5.6 L5.9,-5.6 5.9,5.6 -5.9,5.6  z" class="primitive"/>
          </g>
          <g transform="translate(95.54,58.55)" id="img-80c5147e-43" fill="#71AD00" fill-opacity="1">
            <path d="M-5.9,-5.6 L5.9,-5.6 5.9,5.6 -5.9,5.6  z" class="primitive"/>
          </g>
          <g transform="translate(95.54,69.76)" id="img-80c5147e-44" fill="#4C9900" fill-opacity="1">
            <path d="M-5.9,-5.6 L5.9,-5.6 5.9,5.6 -5.9,5.6  z" class="primitive"/>
          </g>
          <g transform="translate(107.35,36.14)" id="img-80c5147e-45" fill="#FFD500" fill-opacity="1">
            <path d="M-5.9,-5.6 L5.9,-5.6 5.9,5.6 -5.9,5.6  z" class="primitive"/>
          </g>
          <g transform="translate(107.35,47.34)" id="img-80c5147e-46" fill="#C0DA00" fill-opacity="1">
            <path d="M-5.9,-5.6 L5.9,-5.6 5.9,5.6 -5.9,5.6  z" class="primitive"/>
          </g>
          <g transform="translate(107.35,58.55)" id="img-80c5147e-47" fill="#008000" fill-opacity="1">
            <path d="M-5.9,-5.6 L5.9,-5.6 5.9,5.6 -5.9,5.6  z" class="primitive"/>
          </g>
          <g transform="translate(107.35,69.76)" id="img-80c5147e-48" fill="#FFE000" fill-opacity="1">
            <path d="M-5.9,-5.6 L5.9,-5.6 5.9,5.6 -5.9,5.6  z" class="primitive"/>
          </g>
          <g transform="translate(119.15,36.14)" id="img-80c5147e-49" fill="#EAF300" fill-opacity="1">
            <path d="M-5.9,-5.6 L5.9,-5.6 5.9,5.6 -5.9,5.6  z" class="primitive"/>
          </g>
          <g transform="translate(119.15,47.34)" id="img-80c5147e-50" fill="#FFF900" fill-opacity="1">
            <path d="M-5.9,-5.6 L5.9,-5.6 5.9,5.6 -5.9,5.6  z" class="primitive"/>
          </g>
          <g transform="translate(119.15,58.55)" id="img-80c5147e-51" fill="#D2E500" fill-opacity="1">
            <path d="M-5.9,-5.6 L5.9,-5.6 5.9,5.6 -5.9,5.6  z" class="primitive"/>
          </g>
          <g transform="translate(119.15,69.76)" id="img-80c5147e-52" fill="#BED900" fill-opacity="1">
            <path d="M-5.9,-5.6 L5.9,-5.6 5.9,5.6 -5.9,5.6  z" class="primitive"/>
          </g>
        </g>
      </g>
    </g>
  </g>
  <g font-size="4.23" font-family="'PT Sans','Helvetica Neue','Helvetica',sans-serif" fill="#564A55" stroke="#000000" stroke-opacity="0.000" id="img-80c5147e-53">
    <g transform="translate(66.03,22.64)" id="img-80c5147e-54">
      <g class="primitive">
        <text text-anchor="middle" dy="0.6em">Reconstructed mixing matrix</text>
      </g>
    </g>
  </g>
</g>
<defs>
  <clipPath id="img-80c5147e-7">
    <path d="M5,28.54 L127.06,28.54 127.06,77.36 5,77.36 " />
  </clipPath>
</defs>
</svg>
