<?xml version="1.0" encoding="UTF-8"?>
<svg xmlns="http://www.w3.org/2000/svg"
     xmlns:xlink="http://www.w3.org/1999/xlink"
     xmlns:gadfly="http://www.gadflyjl.org/ns"
     version="1.2"
     width="141.42mm" height="100mm" viewBox="0 0 141.42 100"
     stroke="none"
     fill="#000000"
     stroke-width="0.3"
     font-size="3.88"
>
<defs>
  <marker id="arrow" markerWidth="15" markerHeight="7" refX="5" refY="3.5" orient="auto" markerUnits="strokeWidth">
    <path d="M0,0 L15,3.5 L0,7 z" stroke="context-stroke" fill="context-stroke"/>
  </marker>
</defs>
<g class="plotroot xscalable yscalable" id="img-fd92a6d3-1">
  <g class="guide xlabels" font-size="4.23" font-family="'PT Sans Caption','Helvetica Neue','Helvetica',sans-serif" fill="#6C606B" id="img-fd92a6d3-2">
    <g transform="translate(13.5,90.93)">
      <g class="primitive">
        <text text-anchor="middle" dy="0.6em">0</text>
      </g>
    </g>
    <g transform="translate(65.83,90.93)">
      <g class="primitive">
        <text text-anchor="middle" dy="0.6em">50</text>
      </g>
    </g>
    <g transform="translate(118.15,90.93)">
      <g class="primitive">
        <text text-anchor="middle" dy="0.6em">100</text>
      </g>
    </g>
  </g>
  <g class="guide colorkey" id="img-fd92a6d3-3">
    <g fill="#4C404B" font-size="2.82" font-family="'PT Sans','Helvetica Neue','Helvetica',sans-serif" id="img-fd92a6d3-4">
      <g transform="translate(124.2,34.52)" id="img-fd92a6d3-5">
        <g class="primitive">
          <text dy="0.35em">Sensors 1</text>
        </g>
      </g>
      <g transform="translate(124.2,37.56)" id="img-fd92a6d3-6">
        <g class="primitive">
          <text dy="0.35em">Sensors 2</text>
        </g>
      </g>
      <g transform="translate(124.2,40.6)" id="img-fd92a6d3-7">
        <g class="primitive">
          <text dy="0.35em">Sensors 3</text>
        </g>
      </g>
      <g transform="translate(124.2,43.65)" id="img-fd92a6d3-8">
        <g class="primitive">
          <text dy="0.35em">Sensors 4</text>
        </g>
      </g>
      <g transform="translate(124.2,46.69)" id="img-fd92a6d3-9">
        <g class="primitive">
          <text dy="0.35em">Sensors 5</text>
        </g>
      </g>
      <g transform="translate(124.2,49.74)" id="img-fd92a6d3-10">
        <g class="primitive">
          <text dy="0.35em">Sensors 6</text>
        </g>
      </g>
      <g transform="translate(124.2,52.78)" id="img-fd92a6d3-11">
        <g class="primitive">
          <text dy="0.35em">Sensors 7</text>
        </g>
      </g>
      <g transform="translate(124.2,55.82)" id="img-fd92a6d3-12">
        <g class="primitive">
          <text dy="0.35em">Sensors 8</text>
        </g>
      </g>
      <g transform="translate(124.2,58.87)" id="img-fd92a6d3-13">
        <g class="primitive">
          <text dy="0.35em">Sensors 9</text>
        </g>
      </g>
      <g transform="translate(124.2,61.91)" id="img-fd92a6d3-14">
        <g class="primitive">
          <text dy="0.35em">Sensors 10</text>
        </g>
      </g>
    </g>
    <g stroke-width="0" id="img-fd92a6d3-15">
      <g stroke="#000000" stroke-opacity="0.000" fill-opacity="1" fill="#000080" id="img-fd92a6d3-16">
        <g transform="translate(121.68,61.91)" id="img-fd92a6d3-17">
          <circle cx="0" cy="0" r="0.9" class="primitive"/>
        </g>
      </g>
      <g stroke="#000000" stroke-opacity="0.000" fill-opacity="1" fill="#00FF00" id="img-fd92a6d3-18">
        <g transform="translate(121.68,58.87)" id="img-fd92a6d3-19">
          <circle cx="0" cy="0" r="0.9" class="primitive"/>
        </g>
      </g>
      <g stroke="#000000" stroke-opacity="0.000" fill-opacity="1" fill="#FFC0CB" id="img-fd92a6d3-20">
        <g transform="translate(121.68,55.82)" id="img-fd92a6d3-21">
          <circle cx="0" cy="0" r="0.9" class="primitive"/>
        </g>
      </g>
      <g stroke="#000000" stroke-opacity="0.000" fill-opacity="1" fill="#A52A2A" id="img-fd92a6d3-22">
        <g transform="translate(121.68,52.78)" id="img-fd92a6d3-23">
          <circle cx="0" cy="0" r="0.9" class="primitive"/>
        </g>
      </g>
      <g stroke="#000000" stroke-opacity="0.000" fill-opacity="1" fill="#00FFFF" id="img-fd92a6d3-24">
        <g transform="translate(121.68,49.74)" id="img-fd92a6d3-25">
          <circle cx="0" cy="0" r="0.9" class="primitive"/>
        </g>
      </g>
      <g stroke="#000000" stroke-opacity="0.000" fill-opacity="1" fill="#FF00FF" id="img-fd92a6d3-26">
        <g transform="translate(121.68,46.69)" id="img-fd92a6d3-27">
          <circle cx="0" cy="0" r="0.9" class="primitive"/>
        </g>
      </g>
      <g stroke="#000000" stroke-opacity="0.000" fill-opacity="1" fill="#FFA500" id="img-fd92a6d3-28">
        <g transform="translate(121.68,43.65)" id="img-fd92a6d3-29">
          <circle cx="0" cy="0" r="0.9" class="primitive"/>
        </g>
      </g>
      <g stroke="#000000" stroke-opacity="0.000" fill-opacity="1" fill="#008000" id="img-fd92a6d3-30">
        <g transform="translate(121.68,40.6)" id="img-fd92a6d3-31">
          <circle cx="0" cy="0" r="0.9" class="primitive"/>
        </g>
      </g>
      <g stroke="#000000" stroke-opacity="0.000" fill-opacity="1" fill="#0000FF" id="img-fd92a6d3-32">
        <g transform="translate(121.68,37.56)" id="img-fd92a6d3-33">
          <circle cx="0" cy="0" r="0.9" class="primitive"/>
        </g>
      </g>
      <g stroke="#000000" stroke-opacity="0.000" fill-opacity="1" fill="#FF0000" id="img-fd92a6d3-34">
        <g transform="translate(121.68,34.52)" id="img-fd92a6d3-35">
          <circle cx="0" cy="0" r="0.9" class="primitive"/>
        </g>
      </g>
    </g>
    <g fill="#362A35" font-size="3.88" font-family="'PT Sans','Helvetica Neue','Helvetica',sans-serif" stroke="#000000" stroke-opacity="0.000" id="img-fd92a6d3-36">
      <g transform="translate(121.15,31.5)" id="img-fd92a6d3-37">
        <g class="primitive">
          <text dy="-0em"></text>
        </g>
      </g>
    </g>
  </g>
  <g clip-path="url(#img-fd92a6d3-38)">
    <g id="img-fd92a6d3-39">
      <g pointer-events="visible" stroke-width="0.3" fill="#000000" fill-opacity="0.000" stroke="#000000" stroke-opacity="0.000" class="guide background" id="img-fd92a6d3-40">
        <g transform="translate(65.83,47.46)" id="img-fd92a6d3-41">
          <path d="M-54.33,-42.46 L54.33,-42.46 54.33,42.46 -54.33,42.46  z" class="primitive"/>
        </g>
      </g>
      <g class="guide ygridlines xfixed" stroke-dasharray="0.5,0.5" stroke-width="0.2" stroke="#D0D0E0" id="img-fd92a6d3-42">
        <g transform="translate(65.83,87.93)" id="img-fd92a6d3-43">
          <path fill="none" d="M-54.33,0 L54.33,0 " class="primitive"/>
        </g>
        <g transform="translate(65.83,60.95)" id="img-fd92a6d3-44">
          <path fill="none" d="M-54.33,0 L54.33,0 " class="primitive"/>
        </g>
        <g transform="translate(65.83,33.98)" id="img-fd92a6d3-45">
          <path fill="none" d="M-54.33,0 L54.33,0 " class="primitive"/>
        </g>
        <g transform="translate(65.83,7)" id="img-fd92a6d3-46">
          <path fill="none" d="M-54.33,0 L54.33,0 " class="primitive"/>
        </g>
      </g>
      <g class="guide xgridlines yfixed" stroke-dasharray="0.5,0.5" stroke-width="0.2" stroke="#D0D0E0" id="img-fd92a6d3-47">
        <g transform="translate(13.5,47.46)" id="img-fd92a6d3-48">
          <path fill="none" d="M0,-42.46 L0,42.46 " class="primitive"/>
        </g>
        <g transform="translate(65.83,47.46)" id="img-fd92a6d3-49">
          <path fill="none" d="M0,-42.46 L0,42.46 " class="primitive"/>
        </g>
        <g transform="translate(118.15,47.46)" id="img-fd92a6d3-50">
          <path fill="none" d="M0,-42.46 L0,42.46 " class="primitive"/>
        </g>
      </g>
      <g class="plotpanel" id="img-fd92a6d3-51">
        <metadata>
          <boundingbox value="11.497227647569446mm 5.0mm 108.65764367220535mm 84.92663031684029mm"/>
          <unitbox value="-1.9109927663421626 15.370706155471263 103.82198553268434 -15.741412310942525"/>
        </metadata>
        <g stroke-width="0.71" fill="#000000" fill-opacity="0.000" class="geometry" id="img-fd92a6d3-52">
          <g class="color_RGBA{N0f8}(0.0,0.0,0.502,1.0)" stroke-dasharray="none" stroke="#000080" id="img-fd92a6d3-53">
            <g transform="translate(66.35,58.04)" id="img-fd92a6d3-54">
              <path fill="none" d="M-51.81,-4.8 L-50.76,-4.67 -49.71,-13.35 -48.67,-10.32 -47.62,-18.62 -46.57,-4.48 -45.53,-11.98 -44.48,0.6 -43.43,6.5 -42.39,10.21 -41.34,11.09 -40.29,5.76 -39.25,-1.73 -38.2,-0.99 -37.15,-9.44 -36.11,-6.92 -35.06,3.83 -34.01,6.66 -32.97,7.63 -31.92,0.16 -30.87,9.05 -29.83,-1.68 -28.78,-4.23 -27.73,-5.31 -26.69,-5.41 -25.64,-11.92 -24.59,-21.63 -23.55,-21.49 -22.5,-25.32 -21.45,-20.82 -20.41,-9.35 -19.36,-6.34 -18.32,-0.27 -17.27,11.28 -16.22,5.01 -15.18,15.96 -14.13,2.09 -13.08,-4.27 -12.04,-1.29 -10.99,-5.97 -9.94,-8 -8.9,-4.93 -7.85,-10.11 -6.8,-5.16 -5.76,-7.63 -4.71,2.68 -3.66,0.53 -2.62,-10.79 -1.57,-6.79 -0.52,-10.72 0.52,-15.07 1.57,-16.76 2.62,-8.43 3.66,-2.22 4.71,5.84 5.76,3.57 6.8,7.72 7.85,17.76 8.9,17.34 9.94,9.24 10.99,12.92 12.04,-1.99 13.08,-6.56 14.13,-12.74 15.18,-13.02 16.22,-16.4 17.27,-9.17 18.32,-8.68 19.36,1.69 20.41,3.33 21.45,11.62 22.5,-0.41 23.55,2.96 24.59,9.32 25.64,8.17 26.69,6.95 27.73,9.18 28.78,4.77 29.83,12.08 30.87,10.39 31.92,11.84 32.97,16.94 34.01,14.79 35.06,12.16 36.11,6.44 37.15,12.23 38.2,7.13 39.25,-3.13 40.29,-6.8 41.34,-4.28 42.39,-15.03 43.43,-0.8 44.48,-0.16 45.53,-2.34 46.57,15.44 47.62,12.7 48.67,20.06 49.71,19.33 50.76,25.68 51.81,12.1 " class="primitive"/>
            </g>
          </g>
        </g>
        <g stroke-width="0.71" fill="#000000" fill-opacity="0.000" class="geometry" id="img-fd92a6d3-55">
          <g class="color_RGBA{N0f8}(0.0,1.0,0.0,1.0)" stroke-dasharray="none" stroke="#00FF00" id="img-fd92a6d3-56">
            <g transform="translate(66.35,59.32)" id="img-fd92a6d3-57">
              <path fill="none" d="M-51.81,-5.3 L-50.76,-1.48 -49.71,-13.31 -48.67,-6.84 -47.62,-20.55 -46.57,2.02 -45.53,-12.28 -44.48,6.5 -43.43,14.13 -42.39,18.45 -41.34,18.58 -40.29,8.92 -39.25,-3.85 -38.2,-2.58 -37.15,-16.42 -36.11,-11.91 -35.06,6.37 -34.01,11.58 -32.97,13.95 -31.92,2.67 -30.87,19.21 -29.83,3.6 -28.78,2.04 -27.73,3.08 -26.69,5.49 -25.64,-3.42 -24.59,-18.69 -23.55,-18.8 -22.5,-26.81 -21.45,-22.08 -20.41,-6.45 -19.36,-5.19 -18.32,1.47 -17.27,18.03 -16.22,6.02 -15.18,23.96 -14.13,1.72 -13.08,-7.07 -12.04,0.25 -10.99,-5.08 -9.94,-6.22 -8.9,0.65 -7.85,-6.83 -6.8,2 -5.76,-1.97 -4.71,15.1 -3.66,11.24 -2.62,-7.97 -1.57,-1.76 -0.52,-9.02 0.52,-17.36 1.57,-21.79 2.62,-10.13 3.66,-2.54 4.71,7.85 5.76,1.08 6.8,5.46 7.85,20.5 8.9,19.26 9.94,6.5 10.99,14.56 12.04,-7.46 13.08,-11.81 14.13,-18.92 15.18,-16.81 16.22,-20.9 17.27,-8.54 18.32,-8.68 19.36,6.59 20.41,6.59 21.45,17.34 22.5,-5.68 23.55,-2.65 24.59,5.93 25.64,2.56 26.69,-0.41 27.73,2.71 28.78,-5.06 29.83,6.81 30.87,3.76 31.92,6.14 32.97,14.91 34.01,12.09 35.06,9.08 36.11,1.48 37.15,13.47 38.2,7.45 39.25,-7.44 40.29,-12.03 41.34,-7.31 42.39,-25.96 43.43,-4.21 44.48,-6.14 45.53,-13.38 46.57,12.51 47.62,4.65 48.67,14.5 49.71,12.07 50.76,22.75 51.81,1.42 " class="primitive"/>
            </g>
          </g>
        </g>
        <g stroke-width="0.71" fill="#000000" fill-opacity="0.000" class="geometry" id="img-fd92a6d3-58">
          <g class="color_RGBA{N0f8}(1.0,0.753,0.796,1.0)" stroke-dasharray="none" stroke="#FFC0CB" id="img-fd92a6d3-59">
            <g transform="translate(66.35,68.92)" id="img-fd92a6d3-60">
              <path fill="none" d="M-51.81,-5.97 L-50.76,-9.15 -49.71,-13.18 -48.67,-10.86 -47.62,-10.14 -46.57,-0.6 -45.53,1.87 -44.48,9.89 -43.43,13.53 -42.39,13.76 -41.34,10.47 -40.29,3.29 -39.25,-5.24 -38.2,-10.3 -37.15,-16.46 -36.11,-16.26 -35.06,-10.46 -34.01,-4.96 -32.97,1.19 -31.92,4.47 -30.87,11.83 -29.83,10.32 -28.78,8.83 -27.73,5.38 -26.69,0.64 -25.64,-6.63 -24.59,-14.09 -23.55,-16.38 -22.5,-17.57 -21.45,-13.69 -20.41,-5.85 -19.36,-0.32 -18.32,5.52 -17.27,11.41 -16.22,9 -15.18,9.96 -14.13,0.9 -13.08,-6.31 -12.04,-9.8 -10.99,-14.05 -9.94,-14.87 -8.9,-11.3 -7.85,-8.27 -6.8,-0.7 -5.76,4.24 -4.71,11.96 -3.66,13.06 -2.62,8.23 -1.57,5.88 -0.52,-0.87 0.52,-8.27 1.57,-13.93 2.62,-14.26 3.66,-12.66 4.71,-7.81 5.76,-4.37 6.8,2.13 7.85,10.24 8.9,13.36 9.94,11.64 10.99,11.43 12.04,3.05 13.08,-2.89 14.13,-9.16 15.18,-12.09 16.22,-13.86 17.27,-9.65 18.32,-5.62 19.36,2.86 20.41,8.36 21.45,14.74 22.5,12.05 23.55,11.78 24.59,10.02 25.64,4.11 26.69,-2.23 27.73,-6.46 28.78,-10.8 29.83,-8.45 30.87,-6.28 31.92,-0.89 32.97,6.78 34.01,11.73 35.06,14.96 36.11,14.72 37.15,15.6 38.2,10.5 39.25,2.25 40.29,-3.99 41.34,-7.09 42.39,-12.61 43.43,-7.36 44.48,-4.42 45.53,-0.96 46.57,9.46 47.62,12.12 48.67,16.24 49.71,15.24 50.76,14.3 51.81,5.12 " class="primitive"/>
            </g>
          </g>
        </g>
        <g stroke-width="0.71" fill="#000000" fill-opacity="0.000" class="geometry" id="img-fd92a6d3-61">
          <g class="color_RGBA{N0f8}(0.647,0.165,0.165,1.0)" stroke-dasharray="none" stroke="#A52A2A" id="img-fd92a6d3-62">
            <g transform="translate(66.35,79.32)" id="img-fd92a6d3-63">
              <path fill="none" d="M-51.81,0.75 L-50.76,2.31 -49.71,0.25 -48.67,1.25 -47.62,-2.35 -46.57,0.89 -45.53,-3.41 -44.48,-0.98 -43.43,-0.45 -42.39,-0.09 -41.34,-0.07 -40.29,-1.62 -39.25,-3.59 -38.2,-2.79 -37.15,-5.27 -36.11,-4.47 -35.06,-1.33 -34.01,-1.13 -32.97,-1.63 -31.92,-4.76 -30.87,-1.99 -29.83,-5.19 -28.78,-5.06 -27.73,-3.99 -26.69,-2.43 -25.64,-3.18 -24.59,-5.5 -23.55,-5.29 -22.5,-7.26 -21.45,-7.23 -20.41,-5.38 -19.36,-6.52 -18.32,-6.39 -17.27,-3.85 -16.22,-6.44 -15.18,-2.42 -14.13,-5.93 -13.08,-6.46 -12.04,-3.75 -10.99,-3.81 -9.94,-3.44 -8.9,-1.96 -7.85,-3.79 -6.8,-2.62 -5.76,-4.05 -4.71,-1.09 -3.66,-1.94 -2.62,-5.43 -1.57,-3.43 -0.52,-3.89 0.52,-4.55 1.57,-4.65 2.62,-1.94 3.66,-0.54 4.71,0.98 5.76,-1.24 6.8,-1.28 7.85,1.03 8.9,0.53 9.94,-1.68 10.99,0.87 12.04,-2.13 13.08,-1.36 14.13,-1.18 15.18,0.51 16.22,0.43 17.27,3.04 18.32,2.59 19.36,4.84 20.41,3.91 21.45,5.28 22.5,0.25 23.55,0.91 24.59,3.16 25.64,3.37 26.69,3.8 27.73,5.36 28.78,4.44 29.83,7.02 30.87,6.19 31.92,6.13 32.97,7.23 34.01,6.13 35.06,5.34 36.11,4.09 37.15,7.23 38.2,7.15 39.25,5.44 40.29,5.68 41.34,7.4 42.39,3.9 43.43,7.86 44.48,6.54 45.53,3.79 46.57,7.58 47.62,4.83 48.67,6.06 49.71,5.41 50.76,7.95 51.81,4.55 " class="primitive"/>
            </g>
          </g>
        </g>
        <g stroke-width="0.71" fill="#000000" fill-opacity="0.000" class="geometry" id="img-fd92a6d3-64">
          <g class="color_RGBA{N0f8}(0.0,1.0,1.0,1.0)" stroke-dasharray="none" stroke="#00FFFF" id="img-fd92a6d3-65">
            <g transform="translate(66.35,79.4)" id="img-fd92a6d3-66">
              <path fill="none" d="M-51.81,-1.79 L-50.76,-3.63 -49.71,-4.77 -48.67,-5.07 -47.62,-4.54 -46.57,-3.37 -45.53,-1.87 -44.48,-0.4 -43.43,0.74 -42.39,1.35 -41.34,1.35 -40.29,0.86 -39.25,0.08 -38.2,-0.73 -37.15,-1.3 -36.11,-1.48 -35.06,-1.25 -34.01,-0.71 -32.97,-0.07 -31.92,0.39 -30.87,0.42 -29.83,-0.11 -28.78,-1.23 -27.73,-2.77 -26.69,-4.48 -25.64,-5.99 -24.59,-6.98 -23.55,-7.2 -22.5,-6.55 -21.45,-5.12 -20.41,-3.16 -19.36,-1.02 -18.32,0.9 -17.27,2.24 -16.22,2.78 -15.18,2.48 -14.13,1.45 -13.08,-0.04 -12.04,-1.65 -10.99,-3.03 -9.94,-3.94 -8.9,-4.24 -7.85,-3.98 -6.8,-3.32 -5.76,-2.52 -4.71,-1.84 -3.66,-1.49 -2.62,-1.55 -1.57,-1.97 -0.52,-2.58 0.52,-3.11 1.57,-3.3 2.62,-2.97 3.66,-2.02 4.71,-0.56 5.76,1.19 6.8,2.92 7.85,4.26 8.9,4.92 9.94,4.74 10.99,3.74 12.04,2.08 13.08,0.09 14.13,-1.82 15.18,-3.29 16.22,-4.03 17.27,-3.92 18.32,-3 19.36,-1.5 20.41,0.28 21.45,1.97 22.5,3.27 23.55,4.01 24.59,4.16 25.64,3.82 26.69,3.24 27.73,2.67 28.78,2.35 29.83,2.43 30.87,2.91 31.92,3.66 32.97,4.44 34.01,4.99 35.06,5.08 36.11,4.57 37.15,3.48 38.2,1.99 39.25,0.38 40.29,-0.99 41.34,-1.8 42.39,-1.83 43.43,-1 44.48,0.56 45.53,2.6 46.57,4.72 47.62,6.55 48.67,7.74 49.71,8.09 50.76,7.59 51.81,6.39 " class="primitive"/>
            </g>
          </g>
        </g>
        <g stroke-width="0.71" fill="#000000" fill-opacity="0.000" class="geometry" id="img-fd92a6d3-67">
          <g class="color_RGBA{N0f8}(1.0,0.0,1.0,1.0)" stroke-dasharray="none" stroke="#FF00FF" id="img-fd92a6d3-68">
            <g transform="translate(66.35,67.04)" id="img-fd92a6d3-69">
              <path fill="none" d="M-51.81,0.12 L-50.76,7.71 -49.71,-2.57 -48.67,2.81 -47.62,-14.38 -46.57,3.13 -45.53,-16.61 -44.48,-2.33 -43.43,2.79 -42.39,7.19 -41.34,9.94 -40.29,4.76 -39.25,-2.78 -38.2,3.16 -37.15,-7.76 -36.11,-2.79 -35.06,13.34 -34.01,14.29 -32.97,11.32 -31.92,-5.09 -30.87,7.76 -29.83,-9.21 -28.78,-9.49 -27.73,-4.84 -26.69,2.6 -25.64,-1.11 -24.59,-12.27 -23.55,-10.39 -22.5,-19.02 -21.45,-17.37 -20.41,-6.54 -19.36,-10.61 -18.32,-8.52 -17.27,5.36 -16.22,-6.78 -15.18,13.61 -14.13,-4.19 -13.08,-7.62 -12.04,4.66 -10.99,2.7 -9.94,2.52 -8.9,7.73 -7.85,-3.61 -6.8,0.11 -5.76,-8.94 -4.71,4.34 -3.66,-1.06 -2.62,-19.18 -1.57,-9.48 -0.52,-11.68 0.52,-14.61 1.57,-14.57 2.62,-0.46 3.66,7.01 4.71,14.75 5.76,3.48 6.8,2.65 7.85,13.07 8.9,8.97 9.94,-4.16 10.99,6.13 12.04,-11.55 13.08,-10.5 14.13,-12.43 15.18,-6.6 16.22,-9.3 17.27,1.8 18.32,-1.9 19.36,8.41 20.41,3.3 21.45,10.06 22.5,-14.81 23.55,-11.01 24.59,0.8 25.64,2.35 26.69,4.82 27.73,12.59 28.78,7.58 29.83,19.64 30.87,14.22 31.92,12.25 32.97,15.78 34.01,8.14 35.06,1.92 36.11,-6.47 37.15,7.35 38.2,5.35 39.25,-4.3 40.29,-3.7 41.34,4.89 42.39,-12.14 43.43,8.58 44.48,3.24 45.53,-8.97 46.57,11.63 47.62,-0.57 48.67,6.96 49.71,4.81 50.76,18.28 51.81,1.55 " class="primitive"/>
            </g>
          </g>
        </g>
        <g stroke-width="0.71" fill="#000000" fill-opacity="0.000" class="geometry" id="img-fd92a6d3-70">
          <g class="color_RGBA{N0f8}(1.0,0.647,0.0,1.0)" stroke-dasharray="none" stroke="#FFA500" id="img-fd92a6d3-71">
            <g transform="translate(66.35,68.97)" id="img-fd92a6d3-72">
              <path fill="none" d="M-51.81,-4.7 L-50.76,-7.47 -49.71,-12.64 -48.67,-13.14 -47.62,-16.52 -46.57,-11.47 -45.53,-12.69 -44.48,-6.39 -43.43,-1.66 -42.39,2.74 -41.34,6.34 -40.29,7.71 -39.25,7.93 -38.2,10.23 -37.15,8.63 -36.11,9.73 -35.06,12.62 -34.01,11.97 -32.97,9.95 -31.92,4.58 -30.87,4.39 -29.83,-2.32 -28.78,-6.01 -27.73,-8.66 -26.69,-10.22 -25.64,-13.02 -24.59,-15.92 -23.55,-14.61 -22.5,-13.81 -21.45,-9.59 -20.41,-2.66 -19.36,1.57 -18.32,6.64 -17.27,13.09 -16.22,12.93 -15.18,17.66 -14.13,13.16 -13.08,10.2 -12.04,9.46 -10.99,5.44 -9.94,1.77 -8.9,-0.45 -7.85,-5.4 -6.8,-6.66 -5.76,-9.82 -4.71,-7.95 -3.66,-9.33 -2.62,-12.8 -1.57,-10.24 -0.52,-9.52 0.52,-8.3 1.57,-5.82 2.62,0.1 3.66,5.12 4.71,10.31 5.76,11.37 6.8,13.71 7.85,17.06 8.9,15.97 9.94,11.44 10.99,10.11 12.04,2.08 13.08,-2.75 14.13,-8.06 15.18,-11.07 16.22,-14.53 17.27,-13.67 18.32,-14.14 19.36,-10.35 20.41,-8.55 21.45,-3.72 22.5,-5.05 23.55,-0.87 24.59,4.39 25.64,6.95 26.69,9.02 27.73,11.55 28.78,11 29.83,13.41 30.87,11.87 31.92,10.51 32.97,9.65 34.01,5.9 35.06,1.76 36.11,-3.34 37.15,-4.25 38.2,-8.19 39.25,-13.05 40.29,-14.8 41.34,-13.5 42.39,-15.71 43.43,-8.79 44.48,-5.79 45.53,-3.38 46.57,5.76 47.62,7.86 48.67,12.83 49.71,14.41 50.76,17.49 51.81,12.97 " class="primitive"/>
            </g>
          </g>
        </g>
        <g stroke-width="0.71" fill="#000000" fill-opacity="0.000" class="geometry" id="img-fd92a6d3-73">
          <g class="color_RGBA{N0f8}(0.0,0.502,0.0,1.0)" stroke-dasharray="none" stroke="#008000" id="img-fd92a6d3-74">
            <g transform="translate(66.35,75.33)" id="img-fd92a6d3-75">
              <path fill="none" d="M-51.81,0.35 L-50.76,6.96 -49.71,-0.8 -48.67,3.85 -47.62,-9.69 -46.57,4.38 -45.53,-11.48 -44.48,-0.27 -43.43,3.52 -42.39,6.68 -41.34,8.49 -40.29,3.97 -39.25,-2.37 -38.2,2.17 -37.15,-6.65 -36.11,-2.63 -35.06,10.46 -34.01,11.54 -32.97,9.59 -31.92,-3.04 -30.87,7.77 -29.83,-5.28 -28.78,-5.02 -27.73,-0.91 -26.69,5.31 -25.64,2.47 -24.59,-6.48 -23.55,-5.14 -22.5,-12.34 -21.45,-11.41 -20.41,-3.21 -19.36,-6.95 -18.32,-5.74 -17.27,4.96 -16.22,-5.06 -15.18,11.07 -14.13,-3.22 -13.08,-5.88 -12.04,4.16 -10.99,2.92 -9.94,3.17 -8.9,7.77 -7.85,-0.89 -6.8,2.45 -5.76,-4.51 -4.71,6.27 -3.66,1.97 -2.62,-12.66 -1.57,-5.17 -0.52,-7.33 0.52,-10.18 1.57,-10.71 2.62,0.01 3.66,5.43 4.71,11.13 5.76,1.73 6.8,0.81 7.85,9.03 8.9,5.78 9.94,-4.58 10.99,3.92 12.04,-9.89 13.08,-8.67 14.13,-9.85 15.18,-4.87 16.22,-6.8 17.27,2.19 18.32,-0.79 19.36,7.29 20.41,2.9 21.45,7.89 22.5,-12.52 23.55,-10.05 24.59,-1.18 25.64,-0.48 26.69,1.03 27.73,6.88 28.78,2.65 29.83,12.21 30.87,7.94 31.92,6.56 32.97,9.7 34.01,3.98 35.06,-0.57 36.11,-6.86 37.15,4.57 38.2,3.26 39.25,-4.29 40.29,-3.76 41.34,3.01 42.39,-10.84 43.43,5.39 44.48,0.69 45.53,-9.55 46.57,6.45 47.62,-3.75 48.67,1.91 49.71,-0.07 50.76,10.59 51.81,-2.76 " class="primitive"/>
            </g>
          </g>
        </g>
        <g stroke-width="0.71" fill="#000000" fill-opacity="0.000" class="geometry" id="img-fd92a6d3-76">
          <g class="color_RGBA{N0f8}(0.0,0.0,1.0,1.0)" stroke-dasharray="none" stroke="#0000FF" id="img-fd92a6d3-77">
            <g transform="translate(66.35,67.35)" id="img-fd92a6d3-78">
              <path fill="none" d="M-51.81,0.73 L-50.76,1.16 -49.71,-1.89 -48.67,-1.69 -47.62,-5.86 -46.57,-2.95 -45.53,-7.33 -44.48,-4.77 -43.43,-3.94 -42.39,-3.17 -41.34,-2.7 -40.29,-3.81 -39.25,-5.45 -38.2,-4.47 -37.15,-6.97 -36.11,-6.4 -35.06,-3.73 -34.01,-4.2 -32.97,-5.55 -31.92,-9.63 -30.87,-7.88 -29.83,-12.06 -28.78,-12.82 -27.73,-12.49 -26.69,-11.46 -25.64,-12.48 -24.59,-14.83 -23.55,-14.39 -22.5,-15.9 -21.45,-15.23 -20.41,-12.63 -19.36,-12.95 -18.32,-12.04 -17.27,-8.81 -16.22,-10.84 -15.18,-6.47 -14.13,-9.85 -13.08,-10.46 -12.04,-8.03 -10.99,-8.54 -9.94,-8.73 -8.9,-7.86 -7.85,-10.26 -6.8,-9.58 -5.76,-11.33 -4.71,-8.49 -3.66,-9.21 -2.62,-12.32 -1.57,-9.69 -0.52,-9.31 0.52,-8.96 1.57,-7.93 2.62,-4.07 3.66,-1.54 4.71,0.99 5.76,-0.38 6.8,0.23 7.85,2.95 8.9,2.64 9.94,0.39 10.99,2.72 12.04,-0.62 13.08,-0.24 14.13,-0.46 15.18,0.93 16.22,0.69 17.27,3.33 18.32,3.14 19.36,5.89 20.41,5.68 21.45,7.95 22.5,3.98 23.55,5.78 24.59,9.19 25.64,10.49 26.69,11.89 27.73,14.22 28.78,13.85 29.83,16.73 30.87,15.94 31.92,15.69 32.97,16.4 34.01,14.79 35.06,13.39 36.11,11.54 37.15,14.16 38.2,13.67 39.25,11.75 40.29,11.98 41.34,13.92 42.39,10.84 43.43,15.4 44.48,14.81 45.53,12.86 46.57,17.46 47.62,15.43 48.67,17.24 49.71,16.97 50.76,19.67 51.81,16.16 " class="primitive"/>
            </g>
          </g>
        </g>
        <g stroke-width="0.71" fill="#000000" fill-opacity="0.000" class="geometry" id="img-fd92a6d3-79">
          <g class="color_RGBA{N0f8}(1.0,0.0,0.0,1.0)" stroke-dasharray="none" stroke="#FF0000" id="img-fd92a6d3-80">
            <g transform="translate(66.35,74.31)" id="img-fd92a6d3-81">
              <path fill="none" d="M-51.81,-3.38 L-50.76,-4.61 -49.71,-7.8 -48.67,-5.95 -47.62,-6.91 -46.57,0.17 -45.53,-0.02 -44.48,5.82 -43.43,8.26 -42.39,8.59 -41.34,6.67 -40.29,1.79 -39.25,-4.08 -38.2,-6.75 -37.15,-11.4 -36.11,-10.92 -35.06,-6.15 -34.01,-2.73 -32.97,0.79 -31.92,1.54 -30.87,7.09 -29.83,4.93 -28.78,4.11 -27.73,2.49 -26.69,0.29 -25.64,-4.35 -24.59,-9.75 -23.55,-11.03 -22.5,-12.53 -21.45,-10.18 -20.41,-4.73 -19.36,-1.87 -18.32,1.68 -17.27,6.23 -16.22,3.74 -15.18,5.91 -14.13,-0.95 -13.08,-5.5 -12.04,-6.53 -10.99,-9.12 -9.94,-9.49 -8.9,-6.78 -7.85,-5.72 -6.8,-0.74 -5.76,1.61 -4.71,7.39 -3.66,7.68 -2.62,3.34 -1.57,2.7 -0.52,-1.59 0.52,-6.33 1.57,-9.81 2.62,-8.97 3.66,-7.5 4.71,-4.03 5.76,-2.91 6.8,0.93 7.85,6.67 8.9,8.28 9.94,6.32 10.99,7.15 12.04,0.87 13.08,-2.44 14.13,-6.18 15.18,-7.32 16.22,-8.47 17.27,-4.95 18.32,-2.76 19.36,3.18 20.41,6.05 21.45,10.37 22.5,6.7 23.55,6.76 24.59,6.56 25.64,3.05 26.69,-0.63 27.73,-2.59 28.78,-5.6 29.83,-3.19 30.87,-2.26 31.92,0.92 32.97,5.93 34.01,8.43 35.06,10.02 36.11,9.35 37.15,11.11 38.2,8 39.25,2.35 40.29,-1.31 41.34,-2.5 42.39,-7.22 43.43,-2.5 44.48,-1.26 45.53,-0.29 46.57,7.48 47.62,7.98 48.67,10.95 49.71,10.1 50.76,10.56 51.81,3.71 " class="primitive"/>
            </g>
          </g>
        </g>
      </g>
    </g>
  </g>
  <g class="guide ylabels" font-size="4.23" font-family="'PT Sans Caption','Helvetica Neue','Helvetica',sans-serif" fill="#6C606B" id="img-fd92a6d3-82">
    <g transform="translate(10.5,87.93)" id="img-fd92a6d3-83">
      <g class="primitive">
        <text text-anchor="end" dy="0.35em">0</text>
      </g>
    </g>
    <g transform="translate(10.5,60.95)" id="img-fd92a6d3-84">
      <g class="primitive">
        <text text-anchor="end" dy="0.35em">5</text>
      </g>
    </g>
    <g transform="translate(10.5,33.98)" id="img-fd92a6d3-85">
      <g class="primitive">
        <text text-anchor="end" dy="0.35em">10</text>
      </g>
    </g>
    <g transform="translate(10.5,7)" id="img-fd92a6d3-86">
      <g class="primitive">
        <text text-anchor="end" dy="0.35em">15</text>
      </g>
    </g>
  </g>
</g>
<defs>
  <clipPath id="img-fd92a6d3-38">
    <path d="M11.5,5 L120.15,5 120.15,89.93 11.5,89.93 " />
  </clipPath>
</defs>
</svg>
