<?xml version="1.0" encoding="UTF-8"?>
<svg xmlns="http://www.w3.org/2000/svg"
     xmlns:xlink="http://www.w3.org/1999/xlink"
     xmlns:gadfly="http://www.gadflyjl.org/ns"
     version="1.2"
     width="141.42mm" height="100mm" viewBox="0 0 141.42 100"
     stroke="none"
     fill="#000000"
     stroke-width="0.3"
     font-size="3.88"
>
<defs>
  <marker id="arrow" markerWidth="15" markerHeight="7" refX="5" refY="3.5" orient="auto" markerUnits="strokeWidth">
    <path d="M0,0 L15,3.5 L0,7 z" stroke="context-stroke" fill="context-stroke"/>
  </marker>
</defs>
<g class="plotroot xscalable yscalable" id="img-0ca4b35b-1">
  <g class="guide colorkey" id="img-0ca4b35b-2">
    <g font-size="3.53" font-family="'PT Sans','Helvetica Neue','Helvetica',sans-serif" fill="#4C404B" id="img-0ca4b35b-3">
      <g transform="translate(131.33,56.96)">
        <g class="primitive">
          <text dy="0.35em">0.5</text>
        </g>
      </g>
      <g transform="translate(131.33,49.21)">
        <g class="primitive">
          <text dy="0.35em">1.0</text>
        </g>
      </g>
      <g transform="translate(131.33,64.7)">
        <g class="primitive">
          <text dy="0.35em">0.0</text>
        </g>
      </g>
    </g>
    <g shape-rendering="crispEdges" fill-opacity="1" stroke="#000000" stroke-opacity="0.000" id="img-0ca4b35b-4">
      <g transform="translate(129.69,64.51)" fill="#008000">
        <path d="M-0.64,-0.19 L0.64,-0.19 0.64,0.19 -0.64,0.19  z" class="primitive"/>
      </g>
      <g transform="translate(129.69,64.12)" fill="#208600">
        <path d="M-0.64,-0.19 L0.64,-0.19 0.64,0.19 -0.64,0.19  z" class="primitive"/>
      </g>
      <g transform="translate(129.69,63.73)" fill="#328D00">
        <path d="M-0.64,-0.19 L0.64,-0.19 0.64,0.19 -0.64,0.19  z" class="primitive"/>
      </g>
      <g transform="translate(129.69,63.35)" fill="#409300">
        <path d="M-0.64,-0.19 L0.64,-0.19 0.64,0.19 -0.64,0.19  z" class="primitive"/>
      </g>
      <g transform="translate(129.69,62.96)" fill="#4D9A00">
        <path d="M-0.64,-0.19 L0.64,-0.19 0.64,0.19 -0.64,0.19  z" class="primitive"/>
      </g>
      <g transform="translate(129.69,62.57)" fill="#5AA000">
        <path d="M-0.64,-0.19 L0.64,-0.19 0.64,0.19 -0.64,0.19  z" class="primitive"/>
      </g>
      <g transform="translate(129.69,62.18)" fill="#66A700">
        <path d="M-0.64,-0.19 L0.64,-0.19 0.64,0.19 -0.64,0.19  z" class="primitive"/>
      </g>
      <g transform="translate(129.69,61.8)" fill="#72AD00">
        <path d="M-0.64,-0.19 L0.64,-0.19 0.64,0.19 -0.64,0.19  z" class="primitive"/>
      </g>
      <g transform="translate(129.69,61.41)" fill="#7DB300">
        <path d="M-0.64,-0.19 L0.64,-0.19 0.64,0.19 -0.64,0.19  z" class="primitive"/>
      </g>
      <g transform="translate(129.69,61.02)" fill="#88BA00">
        <path d="M-0.64,-0.19 L0.64,-0.19 0.64,0.19 -0.64,0.19  z" class="primitive"/>
      </g>
      <g transform="translate(129.69,60.64)" fill="#94C000">
        <path d="M-0.64,-0.19 L0.64,-0.19 0.64,0.19 -0.64,0.19  z" class="primitive"/>
      </g>
      <g transform="translate(129.69,60.25)" fill="#9FC700">
        <path d="M-0.64,-0.19 L0.64,-0.19 0.64,0.19 -0.64,0.19  z" class="primitive"/>
      </g>
      <g transform="translate(129.69,59.86)" fill="#AACE00">
        <path d="M-0.64,-0.19 L0.64,-0.19 0.64,0.19 -0.64,0.19  z" class="primitive"/>
      </g>
      <g transform="translate(129.69,59.47)" fill="#B5D400">
        <path d="M-0.64,-0.19 L0.64,-0.19 0.64,0.19 -0.64,0.19  z" class="primitive"/>
      </g>
      <g transform="translate(129.69,59.09)" fill="#C1DB00">
        <path d="M-0.64,-0.19 L0.64,-0.19 0.64,0.19 -0.64,0.19  z" class="primitive"/>
      </g>
      <g transform="translate(129.69,58.7)" fill="#CCE100">
        <path d="M-0.64,-0.19 L0.64,-0.19 0.64,0.19 -0.64,0.19  z" class="primitive"/>
      </g>
      <g transform="translate(129.69,58.31)" fill="#D7E800">
        <path d="M-0.64,-0.19 L0.64,-0.19 0.64,0.19 -0.64,0.19  z" class="primitive"/>
      </g>
      <g transform="translate(129.69,57.92)" fill="#E2EE00">
        <path d="M-0.64,-0.19 L0.64,-0.19 0.64,0.19 -0.64,0.19  z" class="primitive"/>
      </g>
      <g transform="translate(129.69,57.54)" fill="#EEF500">
        <path d="M-0.64,-0.19 L0.64,-0.19 0.64,0.19 -0.64,0.19  z" class="primitive"/>
      </g>
      <g transform="translate(129.69,57.15)" fill="#F9FC00">
        <path d="M-0.64,-0.19 L0.64,-0.19 0.64,0.19 -0.64,0.19  z" class="primitive"/>
      </g>
      <g transform="translate(129.69,56.76)" fill="#FFFA00">
        <path d="M-0.64,-0.19 L0.64,-0.19 0.64,0.19 -0.64,0.19  z" class="primitive"/>
      </g>
      <g transform="translate(129.69,56.37)" fill="#FFF100">
        <path d="M-0.64,-0.19 L0.64,-0.19 0.64,0.19 -0.64,0.19  z" class="primitive"/>
      </g>
      <g transform="translate(129.69,55.99)" fill="#FFE800">
        <path d="M-0.64,-0.19 L0.64,-0.19 0.64,0.19 -0.64,0.19  z" class="primitive"/>
      </g>
      <g transform="translate(129.69,55.6)" fill="#FFDE00">
        <path d="M-0.64,-0.19 L0.64,-0.19 0.64,0.19 -0.64,0.19  z" class="primitive"/>
      </g>
      <g transform="translate(129.69,55.21)" fill="#FFD500">
        <path d="M-0.64,-0.19 L0.64,-0.19 0.64,0.19 -0.64,0.19  z" class="primitive"/>
      </g>
      <g transform="translate(129.69,54.83)" fill="#FFCB00">
        <path d="M-0.64,-0.19 L0.64,-0.19 0.64,0.19 -0.64,0.19  z" class="primitive"/>
      </g>
      <g transform="translate(129.69,54.44)" fill="#FFC200">
        <path d="M-0.64,-0.19 L0.64,-0.19 0.64,0.19 -0.64,0.19  z" class="primitive"/>
      </g>
      <g transform="translate(129.69,54.05)" fill="#FFB800">
        <path d="M-0.64,-0.19 L0.64,-0.19 0.64,0.19 -0.64,0.19  z" class="primitive"/>
      </g>
      <g transform="translate(129.69,53.66)" fill="#FFAE00">
        <path d="M-0.64,-0.19 L0.64,-0.19 0.64,0.19 -0.64,0.19  z" class="primitive"/>
      </g>
      <g transform="translate(129.69,53.28)" fill="#FFA400">
        <path d="M-0.64,-0.19 L0.64,-0.19 0.64,0.19 -0.64,0.19  z" class="primitive"/>
      </g>
      <g transform="translate(129.69,52.89)" fill="#FF9A00">
        <path d="M-0.64,-0.19 L0.64,-0.19 0.64,0.19 -0.64,0.19  z" class="primitive"/>
      </g>
      <g transform="translate(129.69,52.5)" fill="#FF8F00">
        <path d="M-0.64,-0.19 L0.64,-0.19 0.64,0.19 -0.64,0.19  z" class="primitive"/>
      </g>
      <g transform="translate(129.69,52.11)" fill="#FF8400">
        <path d="M-0.64,-0.19 L0.64,-0.19 0.64,0.19 -0.64,0.19  z" class="primitive"/>
      </g>
      <g transform="translate(129.69,51.73)" fill="#FF7900">
        <path d="M-0.64,-0.19 L0.64,-0.19 0.64,0.19 -0.64,0.19  z" class="primitive"/>
      </g>
      <g transform="translate(129.69,51.34)" fill="#FF6D00">
        <path d="M-0.64,-0.19 L0.64,-0.19 0.64,0.19 -0.64,0.19  z" class="primitive"/>
      </g>
      <g transform="translate(129.69,50.95)" fill="#FF6000">
        <path d="M-0.64,-0.19 L0.64,-0.19 0.64,0.19 -0.64,0.19  z" class="primitive"/>
      </g>
      <g transform="translate(129.69,50.56)" fill="#FF5200">
        <path d="M-0.64,-0.19 L0.64,-0.19 0.64,0.19 -0.64,0.19  z" class="primitive"/>
      </g>
      <g transform="translate(129.69,50.18)" fill="#FF4200">
        <path d="M-0.64,-0.19 L0.64,-0.19 0.64,0.19 -0.64,0.19  z" class="primitive"/>
      </g>
      <g transform="translate(129.69,49.79)" fill="#FF2D00">
        <path d="M-0.64,-0.19 L0.64,-0.19 0.64,0.19 -0.64,0.19  z" class="primitive"/>
      </g>
      <g transform="translate(129.69,49.4)" fill="#FF0000">
        <path d="M-0.64,-0.19 L0.64,-0.19 0.64,0.19 -0.64,0.19  z" class="primitive"/>
      </g>
      <g stroke="#FFFFFF" stroke-width="0.2" id="img-0ca4b35b-5">
        <g transform="translate(129.69,56.96)">
          <path fill="none" d="M-0.64,0 L0.64,0 " class="primitive"/>
        </g>
        <g transform="translate(129.69,49.21)">
          <path fill="none" d="M-0.64,0 L0.64,0 " class="primitive"/>
        </g>
        <g transform="translate(129.69,64.7)">
          <path fill="none" d="M-0.64,0 L0.64,0 " class="primitive"/>
        </g>
      </g>
    </g>
    <g fill="#362A35" font-size="3.53" font-family="'PT Sans','Helvetica Neue','Helvetica',sans-serif" stroke="#000000" stroke-opacity="0.000" id="img-0ca4b35b-6">
      <g transform="translate(129.06,45.21)">
        <g class="primitive">
          <text dy="-0em"></text>
        </g>
      </g>
    </g>
  </g>
  <g clip-path="url(#img-0ca4b35b-7)">
    <g id="img-0ca4b35b-8">
      <g pointer-events="visible" stroke-width="0.3" fill="#000000" fill-opacity="0.000" stroke="#000000" stroke-opacity="0.000" class="guide background" id="img-0ca4b35b-9">
        <g transform="translate(66.03,52.96)" id="img-0ca4b35b-10">
          <path d="M-61.03,-24.41 L61.03,-24.41 61.03,24.41 -61.03,24.41  z" class="primitive"/>
        </g>
      </g>
      <g class="plotpanel" id="img-0ca4b35b-11">
        <metadata>
          <boundingbox value="5.0mm 28.544656703926986mm 122.05562001769147mm 48.82224800707659mm"/>
          <unitbox value="0.33058832779834746 0.3215172072865031 10.338823344403306 4.356965585426994"/>
        </metadata>
        <g shape-rendering="crispEdges" class="geometry" stroke="#000000" stroke-opacity="0.000" id="img-0ca4b35b-12">
          <g transform="translate(12.9,36.15)" id="img-0ca4b35b-13" fill="#7BB200" fill-opacity="1">
            <path d="M-5.9,-5.6 L5.9,-5.6 5.9,5.6 -5.9,5.6  z" class="primitive"/>
          </g>
          <g transform="translate(12.9,47.35)" id="img-0ca4b35b-14" fill="#008000" fill-opacity="1">
            <path d="M-5.9,-5.6 L5.9,-5.6 5.9,5.6 -5.9,5.6  z" class="primitive"/>
          </g>
          <g transform="translate(12.9,58.56)" id="img-0ca4b35b-15" fill="#FFDB00" fill-opacity="1">
            <path d="M-5.9,-5.6 L5.9,-5.6 5.9,5.6 -5.9,5.6  z" class="primitive"/>
          </g>
          <g transform="translate(12.9,69.76)" id="img-0ca4b35b-16" fill="#7BB200" fill-opacity="1">
            <path d="M-5.9,-5.6 L5.9,-5.6 5.9,5.6 -5.9,5.6  z" class="primitive"/>
          </g>
          <g transform="translate(24.71,36.15)" id="img-0ca4b35b-17" fill="#FF0000" fill-opacity="1">
            <path d="M-5.9,-5.6 L5.9,-5.6 5.9,5.6 -5.9,5.6  z" class="primitive"/>
          </g>
          <g transform="translate(24.71,47.35)" id="img-0ca4b35b-18" fill="#7BB200" fill-opacity="1">
            <path d="M-5.9,-5.6 L5.9,-5.6 5.9,5.6 -5.9,5.6  z" class="primitive"/>
          </g>
          <g transform="translate(24.71,58.56)" id="img-0ca4b35b-19" fill="#008000" fill-opacity="1">
            <path d="M-5.9,-5.6 L5.9,-5.6 5.9,5.6 -5.9,5.6  z" class="primitive"/>
          </g>
          <g transform="translate(24.71,69.76)" id="img-0ca4b35b-20" fill="#7BB200" fill-opacity="1">
            <path d="M-5.9,-5.6 L5.9,-5.6 5.9,5.6 -5.9,5.6  z" class="primitive"/>
          </g>
          <g transform="translate(36.51,36.15)" id="img-0ca4b35b-21" fill="#008000" fill-opacity="1">
            <path d="M-5.9,-5.6 L5.9,-5.6 5.9,5.6 -5.9,5.6  z" class="primitive"/>
          </g>
          <g transform="translate(36.51,47.35)" id="img-0ca4b35b-22" fill="#7BB200" fill-opacity="1">
            <path d="M-5.9,-5.6 L5.9,-5.6 5.9,5.6 -5.9,5.6  z" class="primitive"/>
          </g>
          <g transform="translate(36.51,58.56)" id="img-0ca4b35b-23" fill="#008000" fill-opacity="1">
            <path d="M-5.9,-5.6 L5.9,-5.6 5.9,5.6 -5.9,5.6  z" class="primitive"/>
          </g>
          <g transform="translate(36.51,69.76)" id="img-0ca4b35b-24" fill="#FF8D00" fill-opacity="1">
            <path d="M-5.9,-5.6 L5.9,-5.6 5.9,5.6 -5.9,5.6  z" class="primitive"/>
          </g>
          <g transform="translate(48.32,36.15)" id="img-0ca4b35b-25" fill="#008000" fill-opacity="1">
            <path d="M-5.9,-5.6 L5.9,-5.6 5.9,5.6 -5.9,5.6  z" class="primitive"/>
          </g>
          <g transform="translate(48.32,47.35)" id="img-0ca4b35b-26" fill="#FF0000" fill-opacity="1">
            <path d="M-5.9,-5.6 L5.9,-5.6 5.9,5.6 -5.9,5.6  z" class="primitive"/>
          </g>
          <g transform="translate(48.32,58.56)" id="img-0ca4b35b-27" fill="#7BB200" fill-opacity="1">
            <path d="M-5.9,-5.6 L5.9,-5.6 5.9,5.6 -5.9,5.6  z" class="primitive"/>
          </g>
          <g transform="translate(48.32,69.76)" id="img-0ca4b35b-28" fill="#7BB200" fill-opacity="1">
            <path d="M-5.9,-5.6 L5.9,-5.6 5.9,5.6 -5.9,5.6  z" class="primitive"/>
          </g>
          <g transform="translate(60.13,36.15)" id="img-0ca4b35b-29" fill="#7BB200" fill-opacity="1">
            <path d="M-5.9,-5.6 L5.9,-5.6 5.9,5.6 -5.9,5.6  z" class="primitive"/>
          </g>
          <g transform="translate(60.13,47.35)" id="img-0ca4b35b-30" fill="#D3E500" fill-opacity="1">
            <path d="M-5.9,-5.6 L5.9,-5.6 5.9,5.6 -5.9,5.6  z" class="primitive"/>
          </g>
          <g transform="translate(60.13,58.56)" id="img-0ca4b35b-31" fill="#008000" fill-opacity="1">
            <path d="M-5.9,-5.6 L5.9,-5.6 5.9,5.6 -5.9,5.6  z" class="primitive"/>
          </g>
          <g transform="translate(60.13,69.76)" id="img-0ca4b35b-32" fill="#FF0000" fill-opacity="1">
            <path d="M-5.9,-5.6 L5.9,-5.6 5.9,5.6 -5.9,5.6  z" class="primitive"/>
          </g>
          <g transform="translate(71.93,36.15)" id="img-0ca4b35b-33" fill="#7BB200" fill-opacity="1">
            <path d="M-5.9,-5.6 L5.9,-5.6 5.9,5.6 -5.9,5.6  z" class="primitive"/>
          </g>
          <g transform="translate(71.93,47.35)" id="img-0ca4b35b-34" fill="#7BB200" fill-opacity="1">
            <path d="M-5.9,-5.6 L5.9,-5.6 5.9,5.6 -5.9,5.6  z" class="primitive"/>
          </g>
          <g transform="translate(71.93,58.56)" id="img-0ca4b35b-35" fill="#7BB200" fill-opacity="1">
            <path d="M-5.9,-5.6 L5.9,-5.6 5.9,5.6 -5.9,5.6  z" class="primitive"/>
          </g>
          <g transform="translate(71.93,69.76)" id="img-0ca4b35b-36" fill="#008000" fill-opacity="1">
            <path d="M-5.9,-5.6 L5.9,-5.6 5.9,5.6 -5.9,5.6  z" class="primitive"/>
          </g>
          <g transform="translate(83.74,36.15)" id="img-0ca4b35b-37" fill="#D3E500" fill-opacity="1">
            <path d="M-5.9,-5.6 L5.9,-5.6 5.9,5.6 -5.9,5.6  z" class="primitive"/>
          </g>
          <g transform="translate(83.74,47.35)" id="img-0ca4b35b-38" fill="#008000" fill-opacity="1">
            <path d="M-5.9,-5.6 L5.9,-5.6 5.9,5.6 -5.9,5.6  z" class="primitive"/>
          </g>
          <g transform="translate(83.74,58.56)" id="img-0ca4b35b-39" fill="#008000" fill-opacity="1">
            <path d="M-5.9,-5.6 L5.9,-5.6 5.9,5.6 -5.9,5.6  z" class="primitive"/>
          </g>
          <g transform="translate(83.74,69.76)" id="img-0ca4b35b-40" fill="#7BB200" fill-opacity="1">
            <path d="M-5.9,-5.6 L5.9,-5.6 5.9,5.6 -5.9,5.6  z" class="primitive"/>
          </g>
          <g transform="translate(95.54,36.15)" id="img-0ca4b35b-41" fill="#7BB200" fill-opacity="1">
            <path d="M-5.9,-5.6 L5.9,-5.6 5.9,5.6 -5.9,5.6  z" class="primitive"/>
          </g>
          <g transform="translate(95.54,47.35)" id="img-0ca4b35b-42" fill="#008000" fill-opacity="1">
            <path d="M-5.9,-5.6 L5.9,-5.6 5.9,5.6 -5.9,5.6  z" class="primitive"/>
          </g>
          <g transform="translate(95.54,58.56)" id="img-0ca4b35b-43" fill="#FF0000" fill-opacity="1">
            <path d="M-5.9,-5.6 L5.9,-5.6 5.9,5.6 -5.9,5.6  z" class="primitive"/>
          </g>
          <g transform="translate(95.54,69.76)" id="img-0ca4b35b-44" fill="#7BB200" fill-opacity="1">
            <path d="M-5.9,-5.6 L5.9,-5.6 5.9,5.6 -5.9,5.6  z" class="primitive"/>
          </g>
          <g transform="translate(107.35,36.15)" id="img-0ca4b35b-45" fill="#008000" fill-opacity="1">
            <path d="M-5.9,-5.6 L5.9,-5.6 5.9,5.6 -5.9,5.6  z" class="primitive"/>
          </g>
          <g transform="translate(107.35,47.35)" id="img-0ca4b35b-46" fill="#D3E500" fill-opacity="1">
            <path d="M-5.9,-5.6 L5.9,-5.6 5.9,5.6 -5.9,5.6  z" class="primitive"/>
          </g>
          <g transform="translate(107.35,58.56)" id="img-0ca4b35b-47" fill="#FF8D00" fill-opacity="1">
            <path d="M-5.9,-5.6 L5.9,-5.6 5.9,5.6 -5.9,5.6  z" class="primitive"/>
          </g>
          <g transform="translate(107.35,69.76)" id="img-0ca4b35b-48" fill="#FF0000" fill-opacity="1">
            <path d="M-5.9,-5.6 L5.9,-5.6 5.9,5.6 -5.9,5.6  z" class="primitive"/>
          </g>
          <g transform="translate(119.15,36.15)" id="img-0ca4b35b-49" fill="#D3E500" fill-opacity="1">
            <path d="M-5.9,-5.6 L5.9,-5.6 5.9,5.6 -5.9,5.6  z" class="primitive"/>
          </g>
          <g transform="translate(119.15,47.35)" id="img-0ca4b35b-50" fill="#FFDB00" fill-opacity="1">
            <path d="M-5.9,-5.6 L5.9,-5.6 5.9,5.6 -5.9,5.6  z" class="primitive"/>
          </g>
          <g transform="translate(119.15,58.56)" id="img-0ca4b35b-51" fill="#FFDB00" fill-opacity="1">
            <path d="M-5.9,-5.6 L5.9,-5.6 5.9,5.6 -5.9,5.6  z" class="primitive"/>
          </g>
          <g transform="translate(119.15,69.76)" id="img-0ca4b35b-52" fill="#FFDB00" fill-opacity="1">
            <path d="M-5.9,-5.6 L5.9,-5.6 5.9,5.6 -5.9,5.6  z" class="primitive"/>
          </g>
        </g>
      </g>
    </g>
  </g>
  <g font-size="4.23" font-family="'PT Sans','Helvetica Neue','Helvetica',sans-serif" fill="#564A55" stroke="#000000" stroke-opacity="0.000" id="img-0ca4b35b-53">
    <g transform="translate(66.03,22.63)" id="img-0ca4b35b-54">
      <g class="primitive">
        <text text-anchor="middle" dy="0.6em">Original mixing matrix</text>
      </g>
    </g>
  </g>
</g>
<defs>
  <clipPath id="img-0ca4b35b-7">
    <path d="M5,28.54 L127.06,28.54 127.06,77.37 5,77.37 " />
  </clipPath>
</defs>
</svg>
