<?xml version="1.0" encoding="UTF-8"?>
<svg xmlns="http://www.w3.org/2000/svg"
     xmlns:xlink="http://www.w3.org/1999/xlink"
     xmlns:gadfly="http://www.gadflyjl.org/ns"
     version="1.2"
     width="141.42mm" height="100mm" viewBox="0 0 141.42 100"
     stroke="none"
     fill="#000000"
     stroke-width="0.3"
     font-size="3.88"
>
<defs>
  <marker id="arrow" markerWidth="15" markerHeight="7" refX="5" refY="3.5" orient="auto" markerUnits="strokeWidth">
    <path d="M0,0 L15,3.5 L0,7 z" stroke="context-stroke" fill="context-stroke"/>
  </marker>
</defs>
<g class="plotroot xscalable yscalable" id="img-14d37b94-1">
  <g class="guide xlabels" font-size="4.23" font-family="'PT Sans Caption','Helvetica Neue','Helvetica',sans-serif" fill="#6C606B" id="img-14d37b94-2">
    <g transform="translate(14.67,90.93)">
      <g class="primitive">
        <text text-anchor="middle" dy="0.6em">0</text>
      </g>
    </g>
    <g transform="translate(67.69,90.93)">
      <g class="primitive">
        <text text-anchor="middle" dy="0.6em">50</text>
      </g>
    </g>
    <g transform="translate(120.7,90.93)">
      <g class="primitive">
        <text text-anchor="middle" dy="0.6em">100</text>
      </g>
    </g>
  </g>
  <g class="guide colorkey" id="img-14d37b94-3">
    <g fill="#4C404B" font-size="2.82" font-family="'PT Sans','Helvetica Neue','Helvetica',sans-serif" id="img-14d37b94-4">
      <g transform="translate(127.31,42.8)" id="img-14d37b94-5">
        <g class="primitive">
          <text dy="0.35em">Signal 1</text>
        </g>
      </g>
      <g transform="translate(127.31,46.41)" id="img-14d37b94-6">
        <g class="primitive">
          <text dy="0.35em">Signal 2</text>
        </g>
      </g>
      <g transform="translate(127.31,50.02)" id="img-14d37b94-7">
        <g class="primitive">
          <text dy="0.35em">Signal 3</text>
        </g>
      </g>
      <g transform="translate(127.31,53.62)" id="img-14d37b94-8">
        <g class="primitive">
          <text dy="0.35em">Signal 4</text>
        </g>
      </g>
    </g>
    <g stroke-width="0" id="img-14d37b94-9">
      <g stroke="#000000" stroke-opacity="0.000" fill-opacity="1" fill="#FFA500" id="img-14d37b94-10">
        <g transform="translate(124.51,53.62)" id="img-14d37b94-11">
          <circle cx="0" cy="0" r="0.9" class="primitive"/>
        </g>
      </g>
      <g stroke="#000000" stroke-opacity="0.000" fill-opacity="1" fill="#008000" id="img-14d37b94-12">
        <g transform="translate(124.51,50.02)" id="img-14d37b94-13">
          <circle cx="0" cy="0" r="0.9" class="primitive"/>
        </g>
      </g>
      <g stroke="#000000" stroke-opacity="0.000" fill-opacity="1" fill="#0000FF" id="img-14d37b94-14">
        <g transform="translate(124.51,46.41)" id="img-14d37b94-15">
          <circle cx="0" cy="0" r="0.9" class="primitive"/>
        </g>
      </g>
      <g stroke="#000000" stroke-opacity="0.000" fill-opacity="1" fill="#FF0000" id="img-14d37b94-16">
        <g transform="translate(124.51,42.8)" id="img-14d37b94-17">
          <circle cx="0" cy="0" r="0.9" class="primitive"/>
        </g>
      </g>
    </g>
    <g fill="#362A35" font-size="3.88" font-family="'PT Sans','Helvetica Neue','Helvetica',sans-serif" stroke="#000000" stroke-opacity="0.000" id="img-14d37b94-18">
      <g transform="translate(123.7,39.5)" id="img-14d37b94-19">
        <g class="primitive">
          <text dy="-0em"></text>
        </g>
      </g>
    </g>
  </g>
  <g clip-path="url(#img-14d37b94-20)">
    <g id="img-14d37b94-21">
      <g pointer-events="visible" stroke-width="0.3" fill="#000000" fill-opacity="0.000" stroke="#000000" stroke-opacity="0.000" class="guide background" id="img-14d37b94-22">
        <g transform="translate(67.69,47.46)" id="img-14d37b94-23">
          <path d="M-55.01,-42.46 L55.01,-42.46 55.01,42.46 -55.01,42.46  z" class="primitive"/>
        </g>
      </g>
      <g class="guide ygridlines xfixed" stroke-dasharray="0.5,0.5" stroke-width="0.2" stroke="#D0D0E0" id="img-14d37b94-24">
        <g transform="translate(67.69,87.93)" id="img-14d37b94-25">
          <path fill="none" d="M-55.01,0 L55.01,0 " class="primitive"/>
        </g>
        <g transform="translate(67.69,47.46)" id="img-14d37b94-26">
          <path fill="none" d="M-55.01,0 L55.01,0 " class="primitive"/>
        </g>
        <g transform="translate(67.69,7)" id="img-14d37b94-27">
          <path fill="none" d="M-55.01,0 L55.01,0 " class="primitive"/>
        </g>
      </g>
      <g class="guide xgridlines yfixed" stroke-dasharray="0.5,0.5" stroke-width="0.2" stroke="#D0D0E0" id="img-14d37b94-28">
        <g transform="translate(14.67,47.46)" id="img-14d37b94-29">
          <path fill="none" d="M0,-42.46 L0,42.46 " class="primitive"/>
        </g>
        <g transform="translate(67.69,47.46)" id="img-14d37b94-30">
          <path fill="none" d="M0,-42.46 L0,42.46 " class="primitive"/>
        </g>
        <g transform="translate(120.7,47.46)" id="img-14d37b94-31">
          <path fill="none" d="M0,-42.46 L0,42.46 " class="primitive"/>
        </g>
      </g>
      <g class="plotpanel" id="img-14d37b94-32">
        <metadata>
          <boundingbox value="12.674072265625mm 5.0mm 110.02948069477479mm 84.92663031684027mm"/>
          <unitbox value="-1.8862678444661682 1.0247137436980842 103.77253568893235 -1.0494274873961684"/>
        </metadata>
        <g stroke-width="0.71" fill="#000000" fill-opacity="0.000" class="geometry" id="img-14d37b94-33">
          <g class="color_RGBA{N0f8}(1.0,0.647,0.0,1.0)" stroke-dasharray="none" stroke="#FFA500" id="img-14d37b94-34">
            <g transform="translate(68.22,51.03)" id="img-14d37b94-35">
              <path fill="none" d="M-52.48,4.06 L-51.42,31.58 -50.36,4.68 -49.3,23.64 -48.24,-26.47 -47.18,26.05 -46.12,-34.57 -45.06,5.59 -44,17.31 -42.94,26.25 -41.88,29.99 -40.82,10.19 -39.76,-16.07 -38.7,-0.92 -37.64,-35.07 -36.58,-20.17 -35.52,29.61 -34.46,35.21 -33.4,30.14 -32.34,-14.47 -31.28,29.07 -30.22,-16.88 -29.16,-13.21 -28.1,4.37 -27.04,29.16 -25.98,19.15 -24.92,-14.72 -23.86,-10.85 -22.8,-39.78 -21.74,-38.87 -20.68,-11.02 -19.62,-28.06 -18.56,-26.39 -17.49,11.28 -16.43,-28.1 -15.37,31.35 -14.31,-22.38 -13.25,-31.59 -12.19,7.66 -11.13,5.29 -10.07,8.98 -9.01,29.23 -7.95,-0.26 -6.89,14.95 -5.83,-9.02 -4.77,32.82 -3.71,17.25 -2.65,-37.95 -1.59,-11.08 -0.53,-21.16 0.53,-34.39 1.59,-39.3 2.65,-2.14 3.71,15.35 4.77,34.32 5.83,-2.71 6.89,-7.15 7.95,23.6 9.01,12.2 10.07,-24.99 11.13,9.2 12.19,-39.8 13.25,-32.24 14.31,-33.69 15.37,-12.37 16.43,-17.51 17.49,17.6 18.56,6.92 19.62,36.84 20.68,19.1 21.74,35.8 22.8,-43.33 23.86,-36.99 24.92,-6.75 25.98,-6.95 27.04,-3.69 28.1,16.52 29.16,-0.29 30.22,35.55 31.28,20.38 32.34,16.9 33.4,31.01 34.46,12.35 35.52,-1.7 36.58,-22.34 37.64,23.16 38.7,20.31 39.76,-6.65 40.82,-4.23 41.88,20.74 42.94,-32.51 44,26.3 45.06,6.06 46.12,-35.3 47.18,21.67 48.24,-19.39 49.3,-0.51 50.36,-9.62 51.42,29.46 52.48,-20.58 " class="primitive"/>
            </g>
          </g>
        </g>
        <g stroke-width="0.71" fill="#000000" fill-opacity="0.000" class="geometry" id="img-14d37b94-36">
          <g class="color_RGBA{N0f8}(0.0,0.502,0.0,1.0)" stroke-dasharray="none" stroke="#008000" id="img-14d37b94-37">
            <g transform="translate(68.22,47.49)" id="img-14d37b94-38">
              <path fill="none" d="M-52.48,-19.42 L-51.42,-34.07 -50.36,-40.39 -49.3,-36.82 -48.24,-24.24 -47.18,-5.74 -46.12,14.17 -45.06,30.6 -44,39.53 -42.94,38.78 -41.88,28.52 -40.82,11.28 -39.76,-8.73 -38.7,-26.61 -37.64,-37.98 -36.58,-40.06 -35.52,-32.33 -34.46,-16.7 -33.4,3.02 -32.34,21.99 -31.28,35.57 -30.22,40.44 -29.16,35.4 -28.1,21.69 -27.04,2.66 -25.98,-17.03 -24.92,-32.55 -23.86,-40.11 -22.8,-37.85 -21.74,-26.34 -20.68,-8.38 -19.62,11.62 -18.56,28.78 -17.49,38.88 -16.43,39.45 -15.37,30.36 -14.31,13.83 -13.25,-6.09 -12.19,-24.53 -11.13,-36.97 -10.07,-40.36 -9.01,-33.88 -7.95,-19.11 -6.89,0.33 -5.83,19.69 -4.77,34.22 -3.71,40.36 -2.65,36.62 -1.59,23.9 -0.53,5.33 0.53,-14.55 1.59,-30.88 2.65,-39.65 3.71,-38.72 4.77,-28.32 5.83,-10.99 6.89,9.03 7.95,26.83 9.01,38.05 10.07,39.95 11.13,32.07 12.19,16.32 13.25,-3.42 14.31,-22.34 15.37,-35.79 16.43,-40.49 17.49,-35.27 18.56,-21.43 19.62,-2.35 20.68,17.3 21.74,32.71 22.8,40.11 23.86,37.68 24.92,26.01 25.98,7.98 27.04,-12.02 28.1,-29.08 29.16,-39.02 30.22,-39.42 31.28,-30.18 32.34,-13.55 33.4,6.39 34.46,24.76 35.52,37.06 36.58,40.28 37.64,33.63 38.7,18.74 39.76,-0.74 40.82,-20.05 41.88,-34.46 42.94,-40.43 44,-36.51 45.06,-23.66 46.12,-5.03 47.18,14.84 48.24,31.06 49.3,39.67 50.36,38.57 51.42,28.01 52.48,10.59 " class="primitive"/>
            </g>
          </g>
        </g>
        <g stroke-width="0.71" fill="#000000" fill-opacity="0.000" class="geometry" id="img-14d37b94-39">
          <g class="color_RGBA{N0f8}(0.0,0.0,1.0,1.0)" stroke-dasharray="none" stroke="#0000FF" id="img-14d37b94-40">
            <g transform="translate(68.22,46.53)" id="img-14d37b94-41">
              <path fill="none" d="M-52.48,-11.03 L-51.42,-21.92 -50.36,-30.76 -49.3,-36.78 -48.24,-39.43 -47.18,-38.47 -46.12,-34 -45.06,-26.4 -44,-16.36 -42.94,-4.78 -41.88,7.32 -40.82,18.84 -39.76,28.76 -38.7,36.2 -37.64,40.49 -36.58,41.24 -35.52,38.39 -34.46,32.2 -33.4,23.21 -32.34,12.24 -31.28,0.25 -30.22,-11.67 -29.16,-22.47 -28.1,-31.18 -27.04,-37.02 -25.98,-39.47 -24.92,-38.31 -23.86,-33.65 -22.8,-25.89 -21.74,-15.74 -20.68,-4.1 -19.62,7.99 -18.56,19.45 -17.49,29.25 -16.43,36.53 -15.37,40.62 -14.31,41.18 -13.25,38.13 -12.19,31.76 -11.13,22.64 -10.07,11.58 -9.01,-0.43 -7.95,-12.32 -6.89,-23.02 -5.83,-31.59 -4.77,-37.25 -3.71,-39.5 -2.65,-38.14 -1.59,-33.29 -0.53,-25.38 0.53,-15.12 1.59,-3.43 2.65,8.66 3.71,20.05 4.77,29.73 5.83,36.85 6.89,40.75 7.95,41.1 9.01,37.86 10.07,31.32 11.13,22.07 12.19,10.93 13.25,-1.11 14.31,-12.96 15.37,-23.57 16.43,-31.99 17.49,-37.47 18.56,-39.52 19.62,-37.96 20.68,-32.92 21.74,-24.86 22.8,-14.49 23.86,-2.75 24.92,9.32 25.98,20.64 27.04,30.21 28.1,37.15 29.16,40.87 30.22,41.01 31.28,37.57 32.34,30.87 33.4,21.48 34.46,10.26 35.52,-1.79 36.58,-13.6 37.64,-24.11 38.7,-32.38 39.76,-37.68 40.82,-39.53 41.88,-37.77 42.94,-32.54 44,-24.33 45.06,-13.86 46.12,-2.07 47.18,9.99 48.24,21.24 49.3,30.67 50.36,37.45 51.42,40.97 52.48,40.91 " class="primitive"/>
            </g>
          </g>
        </g>
        <g stroke-width="0.71" fill="#000000" fill-opacity="0.000" class="geometry" id="img-14d37b94-42">
          <g class="color_RGBA{N0f8}(1.0,0.0,0.0,1.0)" stroke-dasharray="none" stroke="#FF0000" id="img-14d37b94-43">
            <g transform="translate(68.22,41.86)" id="img-14d37b94-44">
              <path fill="none" d="M-52.48,3.58 L-51.42,1.56 -50.36,-0.44 -49.3,-2.44 -48.24,-4.41 -47.18,-6.36 -46.12,-8.27 -45.06,-10.16 -44,-12 -42.94,-13.8 -41.88,-15.55 -40.82,-17.25 -39.76,-18.89 -38.7,-20.47 -37.64,-21.98 -36.58,-23.42 -35.52,-24.8 -34.46,-26.09 -33.4,-27.31 -32.34,-28.45 -31.28,-29.5 -30.22,-30.46 -29.16,-31.33 -28.1,-32.11 -27.04,-32.8 -25.98,-33.39 -24.92,-33.88 -23.86,-34.27 -22.8,-34.57 -21.74,-34.76 -20.68,-34.85 -19.62,-34.84 -18.56,-34.73 -17.49,-34.52 -16.43,-34.21 -15.37,-33.8 -14.31,-33.29 -13.25,-32.69 -12.19,-31.99 -11.13,-31.19 -10.07,-30.3 -9.01,-29.33 -7.95,-28.26 -6.89,-27.11 -5.83,-25.88 -4.77,-24.57 -3.71,-23.19 -2.65,-21.73 -1.59,-20.2 -0.53,-18.61 0.53,-16.96 1.59,-15.26 2.65,-13.5 3.71,-11.69 4.77,-9.84 5.83,-7.95 6.89,-6.03 7.95,-4.08 9.01,-2.1 10.07,-0.11 11.13,1.9 12.19,3.92 13.25,5.94 14.31,7.96 15.37,9.98 16.43,11.98 17.49,13.97 18.56,15.94 19.62,17.88 20.68,19.8 21.74,21.67 22.8,23.51 23.86,25.3 24.92,27.04 25.98,28.73 27.04,30.36 28.1,31.93 29.16,33.43 30.22,34.86 31.28,36.22 32.34,37.51 33.4,38.71 34.46,39.83 35.52,40.87 36.58,41.82 37.64,42.67 38.7,43.44 39.76,44.11 40.82,44.68 41.88,45.16 42.94,45.53 44,45.81 45.06,45.99 46.12,46.06 47.18,46.04 48.24,45.91 49.3,45.68 50.36,45.36 51.42,44.93 52.48,44.4 " class="primitive"/>
            </g>
          </g>
        </g>
      </g>
    </g>
  </g>
  <g class="guide ylabels" font-size="4.23" font-family="'PT Sans Caption','Helvetica Neue','Helvetica',sans-serif" fill="#6C606B" id="img-14d37b94-45">
    <g transform="translate(11.67,87.93)" id="img-14d37b94-46">
      <g class="primitive">
        <text text-anchor="end" dy="0.35em">0.0</text>
      </g>
    </g>
    <g transform="translate(11.67,47.46)" id="img-14d37b94-47">
      <g class="primitive">
        <text text-anchor="end" dy="0.35em">0.5</text>
      </g>
    </g>
    <g transform="translate(11.67,7)" id="img-14d37b94-48">
      <g class="primitive">
        <text text-anchor="end" dy="0.35em">1.0</text>
      </g>
    </g>
  </g>
</g>
<defs>
  <clipPath id="img-14d37b94-20">
    <path d="M12.67,5 L122.7,5 122.7,89.93 12.67,89.93 " />
  </clipPath>
</defs>
</svg>
