<?xml version="1.0" encoding="UTF-8"?>
<svg xmlns="http://www.w3.org/2000/svg"
     xmlns:xlink="http://www.w3.org/1999/xlink"
     xmlns:gadfly="http://www.gadflyjl.org/ns"
     version="1.2"
     width="141.42mm" height="100mm" viewBox="0 0 141.42 100"
     stroke="none"
     fill="#000000"
     stroke-width="0.3"
     font-size="3.88"
>
<defs>
  <marker id="arrow" markerWidth="15" markerHeight="7" refX="5" refY="3.5" orient="auto" markerUnits="strokeWidth">
    <path d="M0,0 L15,3.5 L0,7 z" stroke="context-stroke" fill="context-stroke"/>
  </marker>
</defs>
<g class="plotroot xscalable yscalable" id="img-e61bb2f3-1">
  <g class="guide colorkey" id="img-e61bb2f3-2">
    <g font-size="3.53" font-family="'PT Sans','Helvetica Neue','Helvetica',sans-serif" fill="#4C404B" id="img-e61bb2f3-3">
      <g transform="translate(74.73,46.25)">
        <g class="primitive">
          <text dy="0.35em">1.0</text>
        </g>
      </g>
      <g transform="translate(74.73,57.28)">
        <g class="primitive">
          <text dy="0.35em">0.5</text>
        </g>
      </g>
      <g transform="translate(74.73,68.31)">
        <g class="primitive">
          <text dy="0.35em">0.0</text>
        </g>
      </g>
    </g>
    <g shape-rendering="crispEdges" fill-opacity="1" stroke="#000000" stroke-opacity="0.000" id="img-e61bb2f3-4">
      <g transform="translate(72.91,68.04)" fill="#008000">
        <path d="M-0.82,-0.28 L0.82,-0.28 0.82,0.28 -0.82,0.28  z" class="primitive"/>
      </g>
      <g transform="translate(72.91,67.49)" fill="#208600">
        <path d="M-0.82,-0.28 L0.82,-0.28 0.82,0.28 -0.82,0.28  z" class="primitive"/>
      </g>
      <g transform="translate(72.91,66.93)" fill="#328D00">
        <path d="M-0.82,-0.28 L0.82,-0.28 0.82,0.28 -0.82,0.28  z" class="primitive"/>
      </g>
      <g transform="translate(72.91,66.38)" fill="#409300">
        <path d="M-0.82,-0.28 L0.82,-0.28 0.82,0.28 -0.82,0.28  z" class="primitive"/>
      </g>
      <g transform="translate(72.91,65.83)" fill="#4D9A00">
        <path d="M-0.82,-0.28 L0.82,-0.28 0.82,0.28 -0.82,0.28  z" class="primitive"/>
      </g>
      <g transform="translate(72.91,65.28)" fill="#5AA000">
        <path d="M-0.82,-0.28 L0.82,-0.28 0.82,0.28 -0.82,0.28  z" class="primitive"/>
      </g>
      <g transform="translate(72.91,64.73)" fill="#66A700">
        <path d="M-0.82,-0.28 L0.82,-0.28 0.82,0.28 -0.82,0.28  z" class="primitive"/>
      </g>
      <g transform="translate(72.91,64.18)" fill="#72AD00">
        <path d="M-0.82,-0.28 L0.82,-0.28 0.82,0.28 -0.82,0.28  z" class="primitive"/>
      </g>
      <g transform="translate(72.91,63.63)" fill="#7DB300">
        <path d="M-0.82,-0.28 L0.82,-0.28 0.82,0.28 -0.82,0.28  z" class="primitive"/>
      </g>
      <g transform="translate(72.91,63.07)" fill="#88BA00">
        <path d="M-0.82,-0.28 L0.82,-0.28 0.82,0.28 -0.82,0.28  z" class="primitive"/>
      </g>
      <g transform="translate(72.91,62.52)" fill="#94C000">
        <path d="M-0.82,-0.28 L0.82,-0.28 0.82,0.28 -0.82,0.28  z" class="primitive"/>
      </g>
      <g transform="translate(72.91,61.97)" fill="#9FC700">
        <path d="M-0.82,-0.28 L0.82,-0.28 0.82,0.28 -0.82,0.28  z" class="primitive"/>
      </g>
      <g transform="translate(72.91,61.42)" fill="#AACE00">
        <path d="M-0.82,-0.28 L0.82,-0.28 0.82,0.28 -0.82,0.28  z" class="primitive"/>
      </g>
      <g transform="translate(72.91,60.87)" fill="#B5D400">
        <path d="M-0.82,-0.28 L0.82,-0.28 0.82,0.28 -0.82,0.28  z" class="primitive"/>
      </g>
      <g transform="translate(72.91,60.32)" fill="#C1DB00">
        <path d="M-0.82,-0.28 L0.82,-0.28 0.82,0.28 -0.82,0.28  z" class="primitive"/>
      </g>
      <g transform="translate(72.91,59.76)" fill="#CCE100">
        <path d="M-0.82,-0.28 L0.82,-0.28 0.82,0.28 -0.82,0.28  z" class="primitive"/>
      </g>
      <g transform="translate(72.91,59.21)" fill="#D7E800">
        <path d="M-0.82,-0.28 L0.82,-0.28 0.82,0.28 -0.82,0.28  z" class="primitive"/>
      </g>
      <g transform="translate(72.91,58.66)" fill="#E2EE00">
        <path d="M-0.82,-0.28 L0.82,-0.28 0.82,0.28 -0.82,0.28  z" class="primitive"/>
      </g>
      <g transform="translate(72.91,58.11)" fill="#EEF500">
        <path d="M-0.82,-0.28 L0.82,-0.28 0.82,0.28 -0.82,0.28  z" class="primitive"/>
      </g>
      <g transform="translate(72.91,57.56)" fill="#F9FC00">
        <path d="M-0.82,-0.28 L0.82,-0.28 0.82,0.28 -0.82,0.28  z" class="primitive"/>
      </g>
      <g transform="translate(72.91,57.01)" fill="#FFFA00">
        <path d="M-0.82,-0.28 L0.82,-0.28 0.82,0.28 -0.82,0.28  z" class="primitive"/>
      </g>
      <g transform="translate(72.91,56.46)" fill="#FFF100">
        <path d="M-0.82,-0.28 L0.82,-0.28 0.82,0.28 -0.82,0.28  z" class="primitive"/>
      </g>
      <g transform="translate(72.91,55.9)" fill="#FFE800">
        <path d="M-0.82,-0.28 L0.82,-0.28 0.82,0.28 -0.82,0.28  z" class="primitive"/>
      </g>
      <g transform="translate(72.91,55.35)" fill="#FFDE00">
        <path d="M-0.82,-0.28 L0.82,-0.28 0.82,0.28 -0.82,0.28  z" class="primitive"/>
      </g>
      <g transform="translate(72.91,54.8)" fill="#FFD500">
        <path d="M-0.82,-0.28 L0.82,-0.28 0.82,0.28 -0.82,0.28  z" class="primitive"/>
      </g>
      <g transform="translate(72.91,54.25)" fill="#FFCB00">
        <path d="M-0.82,-0.28 L0.82,-0.28 0.82,0.28 -0.82,0.28  z" class="primitive"/>
      </g>
      <g transform="translate(72.91,53.7)" fill="#FFC200">
        <path d="M-0.82,-0.28 L0.82,-0.28 0.82,0.28 -0.82,0.28  z" class="primitive"/>
      </g>
      <g transform="translate(72.91,53.15)" fill="#FFB800">
        <path d="M-0.82,-0.28 L0.82,-0.28 0.82,0.28 -0.82,0.28  z" class="primitive"/>
      </g>
      <g transform="translate(72.91,52.6)" fill="#FFAE00">
        <path d="M-0.82,-0.28 L0.82,-0.28 0.82,0.28 -0.82,0.28  z" class="primitive"/>
      </g>
      <g transform="translate(72.91,52.04)" fill="#FFA400">
        <path d="M-0.82,-0.28 L0.82,-0.28 0.82,0.28 -0.82,0.28  z" class="primitive"/>
      </g>
      <g transform="translate(72.91,51.49)" fill="#FF9A00">
        <path d="M-0.82,-0.28 L0.82,-0.28 0.82,0.28 -0.82,0.28  z" class="primitive"/>
      </g>
      <g transform="translate(72.91,50.94)" fill="#FF8F00">
        <path d="M-0.82,-0.28 L0.82,-0.28 0.82,0.28 -0.82,0.28  z" class="primitive"/>
      </g>
      <g transform="translate(72.91,50.39)" fill="#FF8400">
        <path d="M-0.82,-0.28 L0.82,-0.28 0.82,0.28 -0.82,0.28  z" class="primitive"/>
      </g>
      <g transform="translate(72.91,49.84)" fill="#FF7900">
        <path d="M-0.82,-0.28 L0.82,-0.28 0.82,0.28 -0.82,0.28  z" class="primitive"/>
      </g>
      <g transform="translate(72.91,49.29)" fill="#FF6D00">
        <path d="M-0.82,-0.28 L0.82,-0.28 0.82,0.28 -0.82,0.28  z" class="primitive"/>
      </g>
      <g transform="translate(72.91,48.74)" fill="#FF6000">
        <path d="M-0.82,-0.28 L0.82,-0.28 0.82,0.28 -0.82,0.28  z" class="primitive"/>
      </g>
      <g transform="translate(72.91,48.18)" fill="#FF5200">
        <path d="M-0.82,-0.28 L0.82,-0.28 0.82,0.28 -0.82,0.28  z" class="primitive"/>
      </g>
      <g transform="translate(72.91,47.63)" fill="#FF4200">
        <path d="M-0.82,-0.28 L0.82,-0.28 0.82,0.28 -0.82,0.28  z" class="primitive"/>
      </g>
      <g transform="translate(72.91,47.08)" fill="#FF2D00">
        <path d="M-0.82,-0.28 L0.82,-0.28 0.82,0.28 -0.82,0.28  z" class="primitive"/>
      </g>
      <g transform="translate(72.91,46.53)" fill="#FF0000">
        <path d="M-0.82,-0.28 L0.82,-0.28 0.82,0.28 -0.82,0.28  z" class="primitive"/>
      </g>
      <g stroke="#FFFFFF" stroke-width="0.2" id="img-e61bb2f3-5">
        <g transform="translate(72.91,46.25)">
          <path fill="none" d="M-0.82,0 L0.82,0 " class="primitive"/>
        </g>
        <g transform="translate(72.91,57.28)">
          <path fill="none" d="M-0.82,0 L0.82,0 " class="primitive"/>
        </g>
        <g transform="translate(72.91,68.31)">
          <path fill="none" d="M-0.82,0 L0.82,0 " class="primitive"/>
        </g>
      </g>
    </g>
    <g fill="#362A35" font-size="3.53" font-family="'PT Sans','Helvetica Neue','Helvetica',sans-serif" stroke="#000000" stroke-opacity="0.000" id="img-e61bb2f3-6">
      <g transform="translate(72.09,42.25)">
        <g class="primitive">
          <text dy="-0em"></text>
        </g>
      </g>
    </g>
  </g>
  <g clip-path="url(#img-e61bb2f3-7)">
    <g id="img-e61bb2f3-8">
      <g pointer-events="visible" stroke-width="0.3" fill="#000000" fill-opacity="0.000" stroke="#000000" stroke-opacity="0.000" class="guide background" id="img-e61bb2f3-9">
        <g transform="translate(65.59,50)" id="img-e61bb2f3-10">
          <path d="M-4.5,-45 L4.5,-45 4.5,45 -4.5,45  z" class="primitive"/>
        </g>
      </g>
      <g class="plotpanel" id="img-e61bb2f3-11">
        <metadata>
          <boundingbox value="61.085678118654755mm 5.0mm 9.000000000000002mm 90.0mm"/>
          <unitbox value="-0.2999999999999998 0.03488372093023251 3.5999999999999996 20.930232558139537"/>
        </metadata>
        <g shape-rendering="crispEdges" class="geometry" stroke="#000000" stroke-opacity="0.000" id="img-e61bb2f3-12">
          <g transform="translate(64.34,9.15)" id="img-e61bb2f3-13" fill-opacity="1" fill="#D0E400">
            <path d="M-1.25,-2.15 L1.25,-2.15 1.25,2.15 -1.25,2.15  z" class="primitive"/>
          </g>
          <g transform="translate(64.34,13.45)" id="img-e61bb2f3-14" fill-opacity="1" fill="#89BA00">
            <path d="M-1.25,-2.15 L1.25,-2.15 1.25,2.15 -1.25,2.15  z" class="primitive"/>
          </g>
          <g transform="translate(64.34,17.75)" id="img-e61bb2f3-15" fill-opacity="1" fill="#BDD900">
            <path d="M-1.25,-2.15 L1.25,-2.15 1.25,2.15 -1.25,2.15  z" class="primitive"/>
          </g>
          <g transform="translate(64.34,22.05)" id="img-e61bb2f3-16" fill-opacity="1" fill="#FFE800">
            <path d="M-1.25,-2.15 L1.25,-2.15 1.25,2.15 -1.25,2.15  z" class="primitive"/>
          </g>
          <g transform="translate(64.34,26.35)" id="img-e61bb2f3-17" fill-opacity="1" fill="#F4F900">
            <path d="M-1.25,-2.15 L1.25,-2.15 1.25,2.15 -1.25,2.15  z" class="primitive"/>
          </g>
          <g transform="translate(64.34,30.65)" id="img-e61bb2f3-18" fill-opacity="1" fill="#FFEE00">
            <path d="M-1.25,-2.15 L1.25,-2.15 1.25,2.15 -1.25,2.15  z" class="primitive"/>
          </g>
          <g transform="translate(64.34,34.95)" id="img-e61bb2f3-19" fill-opacity="1" fill="#E7F100">
            <path d="M-1.25,-2.15 L1.25,-2.15 1.25,2.15 -1.25,2.15  z" class="primitive"/>
          </g>
          <g transform="translate(64.34,39.25)" id="img-e61bb2f3-20" fill-opacity="1" fill="#FFFF00">
            <path d="M-1.25,-2.15 L1.25,-2.15 1.25,2.15 -1.25,2.15  z" class="primitive"/>
          </g>
          <g transform="translate(64.34,43.55)" id="img-e61bb2f3-21" fill-opacity="1" fill="#FFDA00">
            <path d="M-1.25,-2.15 L1.25,-2.15 1.25,2.15 -1.25,2.15  z" class="primitive"/>
          </g>
          <g transform="translate(64.34,47.85)" id="img-e61bb2f3-22" fill-opacity="1" fill="#99C300">
            <path d="M-1.25,-2.15 L1.25,-2.15 1.25,2.15 -1.25,2.15  z" class="primitive"/>
          </g>
          <g transform="translate(64.34,52.15)" id="img-e61bb2f3-23" fill-opacity="1" fill="#FFDD00">
            <path d="M-1.25,-2.15 L1.25,-2.15 1.25,2.15 -1.25,2.15  z" class="primitive"/>
          </g>
          <g transform="translate(64.34,56.45)" id="img-e61bb2f3-24" fill-opacity="1" fill="#FFEA00">
            <path d="M-1.25,-2.15 L1.25,-2.15 1.25,2.15 -1.25,2.15  z" class="primitive"/>
          </g>
          <g transform="translate(64.34,60.75)" id="img-e61bb2f3-25" fill-opacity="1" fill="#FFA700">
            <path d="M-1.25,-2.15 L1.25,-2.15 1.25,2.15 -1.25,2.15  z" class="primitive"/>
          </g>
          <g transform="translate(64.34,65.05)" id="img-e61bb2f3-26" fill-opacity="1" fill="#C3DC00">
            <path d="M-1.25,-2.15 L1.25,-2.15 1.25,2.15 -1.25,2.15  z" class="primitive"/>
          </g>
          <g transform="translate(64.34,69.35)" id="img-e61bb2f3-27" fill-opacity="1" fill="#579E00">
            <path d="M-1.25,-2.15 L1.25,-2.15 1.25,2.15 -1.25,2.15  z" class="primitive"/>
          </g>
          <g transform="translate(64.34,73.65)" id="img-e61bb2f3-28" fill-opacity="1" fill="#FF9200">
            <path d="M-1.25,-2.15 L1.25,-2.15 1.25,2.15 -1.25,2.15  z" class="primitive"/>
          </g>
          <g transform="translate(64.34,77.95)" id="img-e61bb2f3-29" fill-opacity="1" fill="#8FBE00">
            <path d="M-1.25,-2.15 L1.25,-2.15 1.25,2.15 -1.25,2.15  z" class="primitive"/>
          </g>
          <g transform="translate(64.34,82.25)" id="img-e61bb2f3-30" fill-opacity="1" fill="#FF8500">
            <path d="M-1.25,-2.15 L1.25,-2.15 1.25,2.15 -1.25,2.15  z" class="primitive"/>
          </g>
          <g transform="translate(64.34,86.55)" id="img-e61bb2f3-31" fill-opacity="1" fill="#E9F200">
            <path d="M-1.25,-2.15 L1.25,-2.15 1.25,2.15 -1.25,2.15  z" class="primitive"/>
          </g>
          <g transform="translate(64.34,90.85)" id="img-e61bb2f3-32" fill-opacity="1" fill="#FFFC00">
            <path d="M-1.25,-2.15 L1.25,-2.15 1.25,2.15 -1.25,2.15  z" class="primitive"/>
          </g>
          <g transform="translate(66.84,9.15)" id="img-e61bb2f3-33" fill-opacity="1" fill="#FFD900">
            <path d="M-1.25,-2.15 L1.25,-2.15 1.25,2.15 -1.25,2.15  z" class="primitive"/>
          </g>
          <g transform="translate(66.84,13.45)" id="img-e61bb2f3-34" fill-opacity="1" fill="#FF9A00">
            <path d="M-1.25,-2.15 L1.25,-2.15 1.25,2.15 -1.25,2.15  z" class="primitive"/>
          </g>
          <g transform="translate(66.84,17.75)" id="img-e61bb2f3-35" fill-opacity="1" fill="#FFC900">
            <path d="M-1.25,-2.15 L1.25,-2.15 1.25,2.15 -1.25,2.15  z" class="primitive"/>
          </g>
          <g transform="translate(66.84,22.05)" id="img-e61bb2f3-36" fill-opacity="1" fill="#E3EF00">
            <path d="M-1.25,-2.15 L1.25,-2.15 1.25,2.15 -1.25,2.15  z" class="primitive"/>
          </g>
          <g transform="translate(66.84,26.35)" id="img-e61bb2f3-37" fill-opacity="1" fill="#FFF600">
            <path d="M-1.25,-2.15 L1.25,-2.15 1.25,2.15 -1.25,2.15  z" class="primitive"/>
          </g>
          <g transform="translate(66.84,30.65)" id="img-e61bb2f3-38" fill-opacity="1" fill="#EAF300">
            <path d="M-1.25,-2.15 L1.25,-2.15 1.25,2.15 -1.25,2.15  z" class="primitive"/>
          </g>
          <g transform="translate(66.84,34.95)" id="img-e61bb2f3-39" fill-opacity="1" fill="#FFEC00">
            <path d="M-1.25,-2.15 L1.25,-2.15 1.25,2.15 -1.25,2.15  z" class="primitive"/>
          </g>
          <g transform="translate(66.84,39.25)" id="img-e61bb2f3-40" fill-opacity="1" fill="#FFFF00">
            <path d="M-1.25,-2.15 L1.25,-2.15 1.25,2.15 -1.25,2.15  z" class="primitive"/>
          </g>
          <g transform="translate(66.84,43.55)" id="img-e61bb2f3-41" fill-opacity="1" fill="#D2E500">
            <path d="M-1.25,-2.15 L1.25,-2.15 1.25,2.15 -1.25,2.15  z" class="primitive"/>
          </g>
          <g transform="translate(66.84,47.85)" id="img-e61bb2f3-42" fill-opacity="1" fill="#FFA800">
            <path d="M-1.25,-2.15 L1.25,-2.15 1.25,2.15 -1.25,2.15  z" class="primitive"/>
          </g>
          <g transform="translate(66.84,52.15)" id="img-e61bb2f3-43" fill-opacity="1" fill="#D6E700">
            <path d="M-1.25,-2.15 L1.25,-2.15 1.25,2.15 -1.25,2.15  z" class="primitive"/>
          </g>
          <g transform="translate(66.84,56.45)" id="img-e61bb2f3-44" fill-opacity="1" fill="#E5F000">
            <path d="M-1.25,-2.15 L1.25,-2.15 1.25,2.15 -1.25,2.15  z" class="primitive"/>
          </g>
          <g transform="translate(66.84,60.75)" id="img-e61bb2f3-45" fill-opacity="1" fill="#97C300">
            <path d="M-1.25,-2.15 L1.25,-2.15 1.25,2.15 -1.25,2.15  z" class="primitive"/>
          </g>
          <g transform="translate(66.84,65.05)" id="img-e61bb2f3-46" fill-opacity="1" fill="#FFCD00">
            <path d="M-1.25,-2.15 L1.25,-2.15 1.25,2.15 -1.25,2.15  z" class="primitive"/>
          </g>
          <g transform="translate(66.84,69.35)" id="img-e61bb2f3-47" fill-opacity="1" fill="#FF6A00">
            <path d="M-1.25,-2.15 L1.25,-2.15 1.25,2.15 -1.25,2.15  z" class="primitive"/>
          </g>
          <g transform="translate(66.84,73.65)" id="img-e61bb2f3-48" fill-opacity="1" fill="#80B500">
            <path d="M-1.25,-2.15 L1.25,-2.15 1.25,2.15 -1.25,2.15  z" class="primitive"/>
          </g>
          <g transform="translate(66.84,77.95)" id="img-e61bb2f3-49" fill-opacity="1" fill="#FFA000">
            <path d="M-1.25,-2.15 L1.25,-2.15 1.25,2.15 -1.25,2.15  z" class="primitive"/>
          </g>
          <g transform="translate(66.84,82.25)" id="img-e61bb2f3-50" fill-opacity="1" fill="#72AD00">
            <path d="M-1.25,-2.15 L1.25,-2.15 1.25,2.15 -1.25,2.15  z" class="primitive"/>
          </g>
          <g transform="translate(66.84,86.55)" id="img-e61bb2f3-51" fill-opacity="1" fill="#FFED00">
            <path d="M-1.25,-2.15 L1.25,-2.15 1.25,2.15 -1.25,2.15  z" class="primitive"/>
          </g>
          <g transform="translate(66.84,90.85)" id="img-e61bb2f3-52" fill-opacity="1" fill="#FCFD00">
            <path d="M-1.25,-2.15 L1.25,-2.15 1.25,2.15 -1.25,2.15  z" class="primitive"/>
          </g>
        </g>
      </g>
    </g>
  </g>
</g>
<defs>
  <clipPath id="img-e61bb2f3-7">
    <path d="M61.09,5 L70.09,5 70.09,95 61.09,95 " />
  </clipPath>
</defs>
</svg>
