<?xml version="1.0" encoding="UTF-8"?>
<svg xmlns="http://www.w3.org/2000/svg"
     xmlns:xlink="http://www.w3.org/1999/xlink"
     xmlns:gadfly="http://www.gadflyjl.org/ns"
     version="1.2"
     width="141.42mm" height="100mm" viewBox="0 0 141.42 100"
     stroke="none"
     fill="#000000"
     stroke-width="0.3"
     font-size="3.88"
>
<defs>
  <marker id="arrow" markerWidth="15" markerHeight="7" refX="5" refY="3.5" orient="auto" markerUnits="strokeWidth">
    <path d="M0,0 L15,3.5 L0,7 z" stroke="context-stroke" fill="context-stroke"/>
  </marker>
</defs>
<g class="plotroot xscalable yscalable" id="img-4f1a4841-1">
  <g class="guide colorkey" id="img-4f1a4841-2">
    <g font-size="3.53" font-family="'PT Sans','Helvetica Neue','Helvetica',sans-serif" fill="#4C404B" id="img-4f1a4841-3">
      <g transform="translate(129.65,46.25)">
        <g class="primitive">
          <text dy="0.35em">100</text>
        </g>
      </g>
      <g transform="translate(129.65,57.28)">
        <g class="primitive">
          <text dy="0.35em">50</text>
        </g>
      </g>
      <g transform="translate(129.65,68.31)">
        <g class="primitive">
          <text dy="0.35em">0</text>
        </g>
      </g>
    </g>
    <g shape-rendering="crispEdges" fill-opacity="1" stroke="#000000" stroke-opacity="0.000" id="img-4f1a4841-4">
      <g transform="translate(127.83,68.04)" fill="#008000">
        <path d="M-0.82,-0.28 L0.82,-0.28 0.82,0.28 -0.82,0.28  z" class="primitive"/>
      </g>
      <g transform="translate(127.83,67.49)" fill="#208600">
        <path d="M-0.82,-0.28 L0.82,-0.28 0.82,0.28 -0.82,0.28  z" class="primitive"/>
      </g>
      <g transform="translate(127.83,66.93)" fill="#328D00">
        <path d="M-0.82,-0.28 L0.82,-0.28 0.82,0.28 -0.82,0.28  z" class="primitive"/>
      </g>
      <g transform="translate(127.83,66.38)" fill="#409300">
        <path d="M-0.82,-0.28 L0.82,-0.28 0.82,0.28 -0.82,0.28  z" class="primitive"/>
      </g>
      <g transform="translate(127.83,65.83)" fill="#4D9A00">
        <path d="M-0.82,-0.28 L0.82,-0.28 0.82,0.28 -0.82,0.28  z" class="primitive"/>
      </g>
      <g transform="translate(127.83,65.28)" fill="#5AA000">
        <path d="M-0.82,-0.28 L0.82,-0.28 0.82,0.28 -0.82,0.28  z" class="primitive"/>
      </g>
      <g transform="translate(127.83,64.73)" fill="#66A700">
        <path d="M-0.82,-0.28 L0.82,-0.28 0.82,0.28 -0.82,0.28  z" class="primitive"/>
      </g>
      <g transform="translate(127.83,64.18)" fill="#72AD00">
        <path d="M-0.82,-0.28 L0.82,-0.28 0.82,0.28 -0.82,0.28  z" class="primitive"/>
      </g>
      <g transform="translate(127.83,63.63)" fill="#7DB300">
        <path d="M-0.82,-0.28 L0.82,-0.28 0.82,0.28 -0.82,0.28  z" class="primitive"/>
      </g>
      <g transform="translate(127.83,63.07)" fill="#88BA00">
        <path d="M-0.82,-0.28 L0.82,-0.28 0.82,0.28 -0.82,0.28  z" class="primitive"/>
      </g>
      <g transform="translate(127.83,62.52)" fill="#94C000">
        <path d="M-0.82,-0.28 L0.82,-0.28 0.82,0.28 -0.82,0.28  z" class="primitive"/>
      </g>
      <g transform="translate(127.83,61.97)" fill="#9FC700">
        <path d="M-0.82,-0.28 L0.82,-0.28 0.82,0.28 -0.82,0.28  z" class="primitive"/>
      </g>
      <g transform="translate(127.83,61.42)" fill="#AACE00">
        <path d="M-0.82,-0.28 L0.82,-0.28 0.82,0.28 -0.82,0.28  z" class="primitive"/>
      </g>
      <g transform="translate(127.83,60.87)" fill="#B5D400">
        <path d="M-0.82,-0.28 L0.82,-0.28 0.82,0.28 -0.82,0.28  z" class="primitive"/>
      </g>
      <g transform="translate(127.83,60.32)" fill="#C1DB00">
        <path d="M-0.82,-0.28 L0.82,-0.28 0.82,0.28 -0.82,0.28  z" class="primitive"/>
      </g>
      <g transform="translate(127.83,59.76)" fill="#CCE100">
        <path d="M-0.82,-0.28 L0.82,-0.28 0.82,0.28 -0.82,0.28  z" class="primitive"/>
      </g>
      <g transform="translate(127.83,59.21)" fill="#D7E800">
        <path d="M-0.82,-0.28 L0.82,-0.28 0.82,0.28 -0.82,0.28  z" class="primitive"/>
      </g>
      <g transform="translate(127.83,58.66)" fill="#E2EE00">
        <path d="M-0.82,-0.28 L0.82,-0.28 0.82,0.28 -0.82,0.28  z" class="primitive"/>
      </g>
      <g transform="translate(127.83,58.11)" fill="#EEF500">
        <path d="M-0.82,-0.28 L0.82,-0.28 0.82,0.28 -0.82,0.28  z" class="primitive"/>
      </g>
      <g transform="translate(127.83,57.56)" fill="#F9FC00">
        <path d="M-0.82,-0.28 L0.82,-0.28 0.82,0.28 -0.82,0.28  z" class="primitive"/>
      </g>
      <g transform="translate(127.83,57.01)" fill="#FFFA00">
        <path d="M-0.82,-0.28 L0.82,-0.28 0.82,0.28 -0.82,0.28  z" class="primitive"/>
      </g>
      <g transform="translate(127.83,56.46)" fill="#FFF100">
        <path d="M-0.82,-0.28 L0.82,-0.28 0.82,0.28 -0.82,0.28  z" class="primitive"/>
      </g>
      <g transform="translate(127.83,55.9)" fill="#FFE800">
        <path d="M-0.82,-0.28 L0.82,-0.28 0.82,0.28 -0.82,0.28  z" class="primitive"/>
      </g>
      <g transform="translate(127.83,55.35)" fill="#FFDE00">
        <path d="M-0.82,-0.28 L0.82,-0.28 0.82,0.28 -0.82,0.28  z" class="primitive"/>
      </g>
      <g transform="translate(127.83,54.8)" fill="#FFD500">
        <path d="M-0.82,-0.28 L0.82,-0.28 0.82,0.28 -0.82,0.28  z" class="primitive"/>
      </g>
      <g transform="translate(127.83,54.25)" fill="#FFCB00">
        <path d="M-0.82,-0.28 L0.82,-0.28 0.82,0.28 -0.82,0.28  z" class="primitive"/>
      </g>
      <g transform="translate(127.83,53.7)" fill="#FFC200">
        <path d="M-0.82,-0.28 L0.82,-0.28 0.82,0.28 -0.82,0.28  z" class="primitive"/>
      </g>
      <g transform="translate(127.83,53.15)" fill="#FFB800">
        <path d="M-0.82,-0.28 L0.82,-0.28 0.82,0.28 -0.82,0.28  z" class="primitive"/>
      </g>
      <g transform="translate(127.83,52.6)" fill="#FFAE00">
        <path d="M-0.82,-0.28 L0.82,-0.28 0.82,0.28 -0.82,0.28  z" class="primitive"/>
      </g>
      <g transform="translate(127.83,52.04)" fill="#FFA400">
        <path d="M-0.82,-0.28 L0.82,-0.28 0.82,0.28 -0.82,0.28  z" class="primitive"/>
      </g>
      <g transform="translate(127.83,51.49)" fill="#FF9A00">
        <path d="M-0.82,-0.28 L0.82,-0.28 0.82,0.28 -0.82,0.28  z" class="primitive"/>
      </g>
      <g transform="translate(127.83,50.94)" fill="#FF8F00">
        <path d="M-0.82,-0.28 L0.82,-0.28 0.82,0.28 -0.82,0.28  z" class="primitive"/>
      </g>
      <g transform="translate(127.83,50.39)" fill="#FF8400">
        <path d="M-0.82,-0.28 L0.82,-0.28 0.82,0.28 -0.82,0.28  z" class="primitive"/>
      </g>
      <g transform="translate(127.83,49.84)" fill="#FF7900">
        <path d="M-0.82,-0.28 L0.82,-0.28 0.82,0.28 -0.82,0.28  z" class="primitive"/>
      </g>
      <g transform="translate(127.83,49.29)" fill="#FF6D00">
        <path d="M-0.82,-0.28 L0.82,-0.28 0.82,0.28 -0.82,0.28  z" class="primitive"/>
      </g>
      <g transform="translate(127.83,48.74)" fill="#FF6000">
        <path d="M-0.82,-0.28 L0.82,-0.28 0.82,0.28 -0.82,0.28  z" class="primitive"/>
      </g>
      <g transform="translate(127.83,48.18)" fill="#FF5200">
        <path d="M-0.82,-0.28 L0.82,-0.28 0.82,0.28 -0.82,0.28  z" class="primitive"/>
      </g>
      <g transform="translate(127.83,47.63)" fill="#FF4200">
        <path d="M-0.82,-0.28 L0.82,-0.28 0.82,0.28 -0.82,0.28  z" class="primitive"/>
      </g>
      <g transform="translate(127.83,47.08)" fill="#FF2D00">
        <path d="M-0.82,-0.28 L0.82,-0.28 0.82,0.28 -0.82,0.28  z" class="primitive"/>
      </g>
      <g transform="translate(127.83,46.53)" fill="#FF0000">
        <path d="M-0.82,-0.28 L0.82,-0.28 0.82,0.28 -0.82,0.28  z" class="primitive"/>
      </g>
      <g stroke="#FFFFFF" stroke-width="0.2" id="img-4f1a4841-5">
        <g transform="translate(127.83,46.25)">
          <path fill="none" d="M-0.82,0 L0.82,0 " class="primitive"/>
        </g>
        <g transform="translate(127.83,57.28)">
          <path fill="none" d="M-0.82,0 L0.82,0 " class="primitive"/>
        </g>
        <g transform="translate(127.83,68.31)">
          <path fill="none" d="M-0.82,0 L0.82,0 " class="primitive"/>
        </g>
      </g>
    </g>
    <g fill="#362A35" font-size="3.53" font-family="'PT Sans','Helvetica Neue','Helvetica',sans-serif" stroke="#000000" stroke-opacity="0.000" id="img-4f1a4841-6">
      <g transform="translate(127,42.25)">
        <g class="primitive">
          <text dy="-0em"></text>
        </g>
      </g>
    </g>
  </g>
  <g clip-path="url(#img-4f1a4841-7)">
    <g id="img-4f1a4841-8">
      <g pointer-events="visible" stroke-width="0.3" fill="#000000" fill-opacity="0.000" stroke="#000000" stroke-opacity="0.000" class="guide background" id="img-4f1a4841-9">
        <g transform="translate(65,50)" id="img-4f1a4841-10">
          <path d="M-60,-40 L60,-40 60,40 -60,40  z" class="primitive"/>
        </g>
      </g>
      <g class="plotpanel" id="img-4f1a4841-11">
        <metadata>
          <boundingbox value="5.0mm 9.998436809785716mm 120.00468957064284mm 80.00312638042857mm"/>
          <unitbox value="0.44827795305338747 0.4473705860469704 3.1034440938932253 2.1052588279060593"/>
        </metadata>
        <g shape-rendering="crispEdges" class="geometry" stroke="#000000" stroke-opacity="0.000" id="img-4f1a4841-12">
          <g transform="translate(26.33,31)" id="img-4f1a4841-13" fill-opacity="1" fill="#3D9200">
            <path d="M-19.33,-19 L19.33,-19 19.33,19 -19.33,19  z" class="primitive"/>
          </g>
          <g transform="translate(26.33,69)" id="img-4f1a4841-14" fill-opacity="1" fill="#FF5100">
            <path d="M-19.33,-19 L19.33,-19 19.33,19 -19.33,19  z" class="primitive"/>
          </g>
          <g transform="translate(65,31)" id="img-4f1a4841-15" fill-opacity="1" fill="#4B9800">
            <path d="M-19.33,-19 L19.33,-19 19.33,19 -19.33,19  z" class="primitive"/>
          </g>
          <g transform="translate(65,69)" id="img-4f1a4841-16" fill-opacity="1" fill="#0D8200">
            <path d="M-19.33,-19 L19.33,-19 19.33,19 -19.33,19  z" class="primitive"/>
          </g>
          <g transform="translate(103.67,31)" id="img-4f1a4841-17" fill-opacity="1" fill="#79B100">
            <path d="M-19.33,-19 L19.33,-19 19.33,19 -19.33,19  z" class="primitive"/>
          </g>
          <g transform="translate(103.67,69)" id="img-4f1a4841-18" fill-opacity="1" fill="#2D8B00">
            <path d="M-19.33,-19 L19.33,-19 19.33,19 -19.33,19  z" class="primitive"/>
          </g>
        </g>
      </g>
    </g>
  </g>
</g>
<defs>
  <clipPath id="img-4f1a4841-7">
    <path d="M5,10 L125,10 125,90 5,90 " />
  </clipPath>
</defs>
</svg>
