<?xml version="1.0" encoding="UTF-8"?>
<svg xmlns="http://www.w3.org/2000/svg"
     xmlns:xlink="http://www.w3.org/1999/xlink"
     xmlns:gadfly="http://www.gadflyjl.org/ns"
     version="1.2"
     width="152.4mm" height="101.6mm" viewBox="0 0 152.4 101.6"
     stroke="none"
     fill="#000000"
     stroke-width="0.3"
     font-size="3.88"
>
<g class="plotroot xscalable yscalable" id="img-9d3ace7a-1">
  <g font-size="3.88" font-family="'PT Sans','Helvetica Neue','Helvetica',sans-serif" fill="#564A55" stroke="#000000" stroke-opacity="0.000" id="img-9d3ace7a-2">
    <text x="86.34" y="89.99" text-anchor="middle" dy="0.6em">X</text>
  </g>
  <g class="guide xlabels" font-size="2.82" font-family="'PT Sans Caption','Helvetica Neue','Helvetica',sans-serif" fill="#6C606B" id="img-9d3ace7a-3">
    <text x="27.28" y="83.32" text-anchor="middle" dy="0.6em">0</text>
    <text x="86.34" y="83.32" text-anchor="middle" dy="0.6em">50</text>
    <text x="145.4" y="83.32" text-anchor="middle" dy="0.6em">100</text>
  </g>
<g clip-path="url(#img-9d3ace7a-4)">
  <g id="img-9d3ace7a-5">
    <g pointer-events="visible" opacity="1" fill="#000000" fill-opacity="0.000" stroke="#000000" stroke-opacity="0.000" class="guide background" id="img-9d3ace7a-6">
      <rect x="25.28" y="61.41" width="122.12" height="20.9"/>
    </g>
    <g class="guide ygridlines xfixed" stroke-dasharray="0.5,0.5" stroke-width="0.2" stroke="#D0D0E0" id="img-9d3ace7a-7">
      <path fill="none" d="M25.28,80.32 L 147.4 80.32"/>
      <path fill="none" d="M25.28,76.09 L 147.4 76.09"/>
      <path fill="none" d="M25.28,71.86 L 147.4 71.86"/>
      <path fill="none" d="M25.28,67.64 L 147.4 67.64"/>
      <path fill="none" d="M25.28,63.41 L 147.4 63.41"/>
    </g>
    <g class="guide xgridlines yfixed" stroke-dasharray="0.5,0.5" stroke-width="0.2" stroke="#D0D0E0" id="img-9d3ace7a-8">
      <path fill="none" d="M27.28,61.41 L 27.28 82.32"/>
      <path fill="none" d="M86.34,61.41 L 86.34 82.32"/>
      <path fill="none" d="M145.4,61.41 L 145.4 82.32"/>
    </g>
    <g class="plotpanel" id="img-9d3ace7a-9">
      <g stroke-width="0.3" fill="#000000" fill-opacity="0.000" class="geometry" stroke-dasharray="none" stroke="#00BFFF" id="img-9d3ace7a-10">
        <path fill="none" d="M28.46,67.96 L 29.64 72.16 30.82 77.65 32 73.48 33.18 76.49 34.36 71.13 35.55 79.04 36.73 72.07 37.91 75.2 39.09 71.62 40.27 76 41.45 76.98 42.63 73.04 43.81 73.37 45 74.34 46.18 71.95 47.36 68.34 48.54 70.42 49.72 70.19 50.9 75.54 52.08 65.95 53.26 73.38 54.45 76.48 55.63 70.28 56.81 69.59 57.99 78.8 59.17 69.78 60.35 72 61.53 66.25 62.71 65.99 63.89 70.06 65.08 74.7 66.26 74.3 67.44 69.53 68.62 72.71 69.8 77.4 70.98 70.84 72.16 76.89 73.34 79.99 74.53 74.33 75.71 71.99 76.89 69.29 78.07 75.49 79.25 67.76 80.43 77.02 81.61 71.84 82.79 77.36 83.98 76.42 85.16 74.99 86.34 74.38 87.52 72.12 88.7 71.16 89.88 69.71 91.06 66.18 92.24 68.05 93.43 78.49 94.61 66.6 95.79 75.17 96.97 76.21 98.15 72.84 99.33 71.14 100.51 74.21 101.69 70.93 102.88 68.59 104.06 69.88 105.24 75.09 106.42 70.06 107.6 70.57 108.78 65.77 109.96 72.26 111.14 69.62 112.33 67.8 113.51 70.24 114.69 72.88 115.87 71.84 117.05 72.46 118.23 74.55 119.41 72.23 120.59 77.47 121.78 73.11 122.96 67.79 124.14 71.04 125.32 79.36 126.5 75.66 127.68 64.07 128.86 71.69 130.04 70.49 131.23 70.27 132.41 76.47 133.59 67.61 134.77 72.61 135.95 65.74 137.13 68.57 138.31 73.93 139.49 68.83 140.68 73.08 141.86 70.38 143.04 72.72 144.22 70.11 145.4 69.09"/>
      </g>
    </g>
  </g>
</g>
  <g class="guide ylabels" font-size="2.82" font-family="'PT Sans Caption','Helvetica Neue','Helvetica',sans-serif" fill="#6C606B" id="img-9d3ace7a-11">
    <text x="24.28" y="80.32" text-anchor="end" dy="0.35em">0</text>
    <text x="24.28" y="76.09" text-anchor="end" dy="0.35em">5.0×10⁴</text>
    <text x="24.28" y="71.86" text-anchor="end" dy="0.35em">1.0×10⁵</text>
    <text x="24.28" y="67.64" text-anchor="end" dy="0.35em">1.5×10⁵</text>
    <text x="24.28" y="63.41" text-anchor="end" dy="0.35em">2.0×10⁵</text>
  </g>
  <g font-size="3.88" font-family="'PT Sans','Helvetica Neue','Helvetica',sans-serif" fill="#564A55" stroke="#000000" stroke-opacity="0.000" id="img-9d3ace7a-12">
    <text x="9.16" y="71.86" text-anchor="end" dy="0.35em">Y</text>
  </g>
  <g font-size="3.88" font-family="'PT Sans','Helvetica Neue','Helvetica',sans-serif" fill="#564A55" stroke="#000000" stroke-opacity="0.000" id="img-9d3ace7a-13">
    <text x="86.34" y="55.8" text-anchor="middle" dy="0.6em">Source 2</text>
  </g>
</g>
<g class="plotroot xscalable yscalable" id="img-9d3ace7a-14">
  <g font-size="3.88" font-family="'PT Sans','Helvetica Neue','Helvetica',sans-serif" fill="#564A55" stroke="#000000" stroke-opacity="0.000" id="img-9d3ace7a-15">
    <text x="86.34" y="39.19" text-anchor="middle" dy="0.6em">X</text>
  </g>
  <g class="guide xlabels" font-size="2.82" font-family="'PT Sans Caption','Helvetica Neue','Helvetica',sans-serif" fill="#6C606B" id="img-9d3ace7a-16">
    <text x="27.28" y="32.52" text-anchor="middle" dy="0.6em">0</text>
    <text x="86.34" y="32.52" text-anchor="middle" dy="0.6em">50</text>
    <text x="145.4" y="32.52" text-anchor="middle" dy="0.6em">100</text>
  </g>
<g clip-path="url(#img-9d3ace7a-17)">
  <g id="img-9d3ace7a-18">
    <g pointer-events="visible" opacity="1" fill="#000000" fill-opacity="0.000" stroke="#000000" stroke-opacity="0.000" class="guide background" id="img-9d3ace7a-19">
      <rect x="25.28" y="10.61" width="122.12" height="20.9"/>
    </g>
    <g class="guide ygridlines xfixed" stroke-dasharray="0.5,0.5" stroke-width="0.2" stroke="#D0D0E0" id="img-9d3ace7a-20">
      <path fill="none" d="M25.28,29.51 L 147.4 29.51"/>
      <path fill="none" d="M25.28,25.29 L 147.4 25.29"/>
      <path fill="none" d="M25.28,21.06 L 147.4 21.06"/>
      <path fill="none" d="M25.28,16.84 L 147.4 16.84"/>
      <path fill="none" d="M25.28,12.61 L 147.4 12.61"/>
    </g>
    <g class="guide xgridlines yfixed" stroke-dasharray="0.5,0.5" stroke-width="0.2" stroke="#D0D0E0" id="img-9d3ace7a-21">
      <path fill="none" d="M27.28,10.61 L 27.28 31.52"/>
      <path fill="none" d="M86.34,10.61 L 86.34 31.52"/>
      <path fill="none" d="M145.4,10.61 L 145.4 31.52"/>
    </g>
    <g class="plotpanel" id="img-9d3ace7a-22">
      <g stroke-width="0.3" fill="#000000" fill-opacity="0.000" class="geometry" stroke-dasharray="none" stroke="#00BFFF" id="img-9d3ace7a-23">
        <path fill="none" d="M28.46,20.81 L 29.64 24.53 30.82 16.26 32 18.57 33.18 18.93 34.36 26.67 35.55 20.33 36.73 25.15 37.91 18.65 39.09 17.58 40.27 27.38 41.45 27.44 42.63 17.42 43.81 25.97 45 24.36 46.18 25.53 47.36 23.32 48.54 24.15 49.72 22.61 50.9 17.48 52.08 14.86 53.26 17.27 54.45 26.91 55.63 24.07 56.81 23.71 57.99 20.84 59.17 21.86 60.35 21.92 61.53 16.2 62.71 16.99 63.89 19.44 65.08 16.79 66.26 25.25 67.44 22.05 68.62 23.89 69.8 25.3 70.98 15.19 72.16 16.99 73.34 20.97 74.53 22.03 75.71 25.68 76.89 26.92 78.07 26.51 79.25 24.94 80.43 19.96 81.61 23.31 82.79 26.69 83.98 24.38 85.16 26.44 86.34 18.09 87.52 24.29 88.7 18.09 89.88 26.58 91.06 13.8 92.24 24.78 93.43 18.87 94.61 23.58 95.79 24.18 96.97 25.65 98.15 18.78 99.33 17.27 100.51 27.44 101.69 21.55 102.88 17.52 104.06 16.61 105.24 27.78 106.42 27.5 107.6 15.2 108.78 17.02 109.96 20.61 111.14 20.76 112.33 20.08 113.51 15.93 114.69 14 115.87 17.82 117.05 21.96 118.23 15.69 119.41 17.13 120.59 21.91 121.78 25.32 122.96 26.03 124.14 17.47 125.32 28.9 126.5 18.37 127.68 18.23 128.86 22.46 130.04 26.31 131.23 25.38 132.41 25.94 133.59 24.19 134.77 16.08 135.95 14.89 137.13 20.87 138.31 20.79 139.49 15.86 140.68 20.92 141.86 22.17 143.04 17.51 144.22 16.98 145.4 23.53"/>
      </g>
    </g>
  </g>
</g>
  <g class="guide ylabels" font-size="2.82" font-family="'PT Sans Caption','Helvetica Neue','Helvetica',sans-serif" fill="#6C606B" id="img-9d3ace7a-24">
    <text x="24.28" y="29.51" text-anchor="end" dy="0.35em">0</text>
    <text x="24.28" y="25.29" text-anchor="end" dy="0.35em">5.0×10⁴</text>
    <text x="24.28" y="21.06" text-anchor="end" dy="0.35em">1.0×10⁵</text>
    <text x="24.28" y="16.84" text-anchor="end" dy="0.35em">1.5×10⁵</text>
    <text x="24.28" y="12.61" text-anchor="end" dy="0.35em">2.0×10⁵</text>
  </g>
  <g font-size="3.88" font-family="'PT Sans','Helvetica Neue','Helvetica',sans-serif" fill="#564A55" stroke="#000000" stroke-opacity="0.000" id="img-9d3ace7a-25">
    <text x="9.16" y="21.06" text-anchor="end" dy="0.35em">Y</text>
  </g>
  <g font-size="3.88" font-family="'PT Sans','Helvetica Neue','Helvetica',sans-serif" fill="#564A55" stroke="#000000" stroke-opacity="0.000" id="img-9d3ace7a-26">
    <text x="86.34" y="5" text-anchor="middle" dy="0.6em">Source 1</text>
  </g>
</g>
<defs>
  <clipPath id="img-9d3ace7a-4">
  <path d="M25.28,61.41 L 147.4 61.41 147.4 82.32 25.28 82.32" />
</clipPath>
  <clipPath id="img-9d3ace7a-17">
  <path d="M25.28,10.61 L 147.4 10.61 147.4 31.52 25.28 31.52" />
</clipPath>
</defs>
</svg>
