<?xml version="1.0" encoding="UTF-8"?>
<svg xmlns="http://www.w3.org/2000/svg"
     xmlns:xlink="http://www.w3.org/1999/xlink"
     xmlns:gadfly="http://www.gadflyjl.org/ns"
     version="1.2"
     width="152.4mm" height="101.6mm" viewBox="0 0 152.4 101.6"
     stroke="none"
     fill="#000000"
     stroke-width="0.3"
     font-size="3.88"
>
<g class="plotroot xscalable yscalable" id="img-7c6a05bc-1">
  <g font-size="3.88" font-family="'PT Sans','Helvetica Neue','Helvetica',sans-serif" fill="#564A55" stroke="#000000" stroke-opacity="0.000" id="img-7c6a05bc-2">
    <text x="68.09" y="89.99" text-anchor="middle" dy="0.6em">X</text>
  </g>
  <g class="guide xlabels" font-size="2.82" font-family="'PT Sans Caption','Helvetica Neue','Helvetica',sans-serif" fill="#6C606B" id="img-7c6a05bc-3">
    <text x="19.18" y="83.32" text-anchor="middle" dy="0.6em">0</text>
    <text x="68.09" y="83.32" text-anchor="middle" dy="0.6em">50</text>
    <text x="116.99" y="83.32" text-anchor="middle" dy="0.6em">100</text>
  </g>
  <g class="guide colorkey" id="img-7c6a05bc-4">
    <g fill="#4C404B" font-size="2.82" font-family="'PT Sans','Helvetica Neue','Helvetica',sans-serif" id="img-7c6a05bc-5">
      <text x="122.81" y="43.66" dy="0.35em" id="img-7c6a05bc-6" class="color_Source_1">Source 1</text>
      <text x="122.81" y="47.28" dy="0.35em" id="img-7c6a05bc-7" class="color_Source_2">Source 2</text>
    </g>
    <g stroke="#000000" stroke-opacity="0.000" id="img-7c6a05bc-8">
      <rect x="119.99" y="42.75" width="1.81" height="1.81" id="img-7c6a05bc-9" fill="#00BFFF" class="color_Source_1"/>
      <rect x="119.99" y="46.38" width="1.81" height="1.81" id="img-7c6a05bc-10" fill="#D4CA3A" class="color_Source_2"/>
    </g>
    <g fill="#362A35" font-size="3.88" font-family="'PT Sans','Helvetica Neue','Helvetica',sans-serif" stroke="#000000" stroke-opacity="0.000" id="img-7c6a05bc-11">
      <text x="119.99" y="39.84" id="img-7c6a05bc-12">Unmixed sources</text>
    </g>
  </g>
<g clip-path="url(#img-7c6a05bc-13)">
  <g id="img-7c6a05bc-14">
    <g pointer-events="visible" opacity="1" fill="#000000" fill-opacity="0.000" stroke="#000000" stroke-opacity="0.000" class="guide background" id="img-7c6a05bc-15">
      <rect x="17.18" y="5" width="101.81" height="77.32" id="img-7c6a05bc-16"/>
    </g>
    <g class="guide ygridlines xfixed" stroke-dasharray="0.5,0.5" stroke-width="0.2" stroke="#D0D0E0" id="img-7c6a05bc-17">
      <path fill="none" d="M17.18,80.32 L 118.99 80.32" id="img-7c6a05bc-18"/>
      <path fill="none" d="M17.18,61.99 L 118.99 61.99" id="img-7c6a05bc-19"/>
      <path fill="none" d="M17.18,43.66 L 118.99 43.66" id="img-7c6a05bc-20"/>
      <path fill="none" d="M17.18,25.33 L 118.99 25.33" id="img-7c6a05bc-21"/>
      <path fill="none" d="M17.18,7 L 118.99 7" id="img-7c6a05bc-22"/>
    </g>
    <g class="guide xgridlines yfixed" stroke-dasharray="0.5,0.5" stroke-width="0.2" stroke="#D0D0E0" id="img-7c6a05bc-23">
      <path fill="none" d="M19.18,5 L 19.18 82.32" id="img-7c6a05bc-24"/>
      <path fill="none" d="M68.09,5 L 68.09 82.32" id="img-7c6a05bc-25"/>
      <path fill="none" d="M116.99,5 L 116.99 82.32" id="img-7c6a05bc-26"/>
    </g>
    <g class="plotpanel" id="img-7c6a05bc-27">
      <g stroke-width="0.3" fill="#000000" fill-opacity="0.000" class="geometry color_Source_2" stroke-dasharray="none" stroke="#D4CA3A" id="img-7c6a05bc-28">
        <path fill="none" d="M20.16,45.84 L 21.14 57.87 22.12 57.73 23.1 54.58 24.07 66.18 25.05 55.65 26.03 62.84 27.01 25.65 27.99 26.34 28.96 54.59 29.94 48.44 30.92 49.87 31.9 21.5 32.88 45.63 33.85 56.82 34.83 22.76 35.81 52.84 36.79 46.43 37.77 58.79 38.75 43.23 39.72 23.59 40.7 22.05 41.68 39.33 42.66 49.14 43.64 57.9 44.61 50.08 45.59 54.75 46.57 18.99 47.55 33.34 48.53 31.68 49.5 48.06 50.48 47.91 51.46 43.34 52.44 29.98 53.42 26.73 54.39 47.56 55.37 34.8 56.35 55.09 57.33 56.99 58.31 42.69 59.29 40.4 60.26 42.04 61.24 22.88 62.22 47.2 63.2 57.55 64.18 16.96 65.15 43.3 66.13 51.59 67.11 28.49 68.09 45.09 69.07 36.74 70.04 27.95 71.02 54.65 72 33.92 72.98 26.3 73.96 49.47 74.93 23.03 75.91 34.06 76.89 49.59 77.87 36.03 78.85 46.49 79.83 61.3 80.8 50.12 81.78 33.05 82.76 35.3 83.74 53.44 84.72 67.71 85.69 28.4 86.67 34.8 87.65 42.15 88.63 47.79 89.61 34.98 90.58 46.39 91.56 36.89 92.54 50.06 93.52 35.51 94.5 45.02 95.47 43 96.45 71.23 97.43 32.17 98.41 66.05 99.39 47.82 100.36 76.35 101.34 69.92 102.32 36.39 103.3 80.31 104.28 80.32 105.26 45.51 106.23 55.47 107.21 38.19 108.19 53.41 109.17 39.96 110.15 55.13 111.12 57.74 112.1 62.05 113.08 36.7 114.06 43.99 115.04 46.44 116.01 50.05 116.99 51.99" id="img-7c6a05bc-29"/>
      </g>
      <g stroke-width="0.3" fill="#000000" fill-opacity="0.000" class="geometry color_Source_1" stroke-dasharray="none" stroke="#00BFFF" id="img-7c6a05bc-30">
        <path fill="none" d="M20.16,64.69 L 21.14 62.83 22.12 60.74 23.1 59.12 24.07 59.09 25.05 58.62 26.03 59.95 27.01 59.48 27.99 61.7 28.96 65.81 29.94 68.11 30.92 70.7 31.9 71.27 32.88 74.22 33.85 75.75 34.83 73.94 35.81 74.93 36.79 73.12 37.77 71.74 38.75 68.34 39.72 64.5 40.7 61.69 41.68 60.19 42.66 58.75 43.64 57.89 44.61 56.88 45.59 57.38 46.57 56.4 47.55 58.94 48.53 61.12 49.5 64.65 50.48 67.36 51.46 69.69 52.44 71.15 53.42 72.62 54.39 74.73 55.37 74.16 56.35 74.64 57.33 73.35 58.31 70.53 59.29 67.95 60.26 65.39 61.24 61.69 62.22 60.7 63.2 59.41 64.18 55.91 65.15 56.95 66.13 57.78 67.11 57.65 68.09 60.43 69.07 62.34 70.04 64.55 71.02 68.85 72 70.33 72.98 72.16 73.96 75.14 74.93 74.62 75.91 75.41 76.89 75.64 77.87 73.5 78.85 72.09 79.83 70.51 80.8 67.27 81.78 63.73 82.76 61.56 83.74 60.78 84.72 60.44 85.69 57.85 86.67 58.65 87.65 60.28 88.63 62.5 89.61 64.19 90.58 67.55 91.56 69.81 92.54 73.17 93.52 74.58 94.5 76.75 95.47 77.54 96.45 79.22 97.43 76.31 98.41 76.76 99.39 73.68 100.36 72.81 101.34 69.79 102.32 65.29 103.3 65.34 104.28 63.69 105.26 60.49 106.23 60.66 107.21 60.11 108.19 62.15 109.17 63.26 110.15 66.47 111.12 69.27 112.1 72.22 113.08 73.32 114.06 75.85 115.04 77.49 116.01 78.47 116.99 78.54" id="img-7c6a05bc-31"/>
      </g>
    </g>
  </g>
</g>
  <g class="guide ylabels" font-size="2.82" font-family="'PT Sans Caption','Helvetica Neue','Helvetica',sans-serif" fill="#6C606B" id="img-7c6a05bc-32">
    <text x="16.18" y="80.32" text-anchor="end" dy="0.35em" id="img-7c6a05bc-33">0.0</text>
    <text x="16.18" y="61.99" text-anchor="end" dy="0.35em" id="img-7c6a05bc-34">0.1</text>
    <text x="16.18" y="43.66" text-anchor="end" dy="0.35em" id="img-7c6a05bc-35">0.2</text>
    <text x="16.18" y="25.33" text-anchor="end" dy="0.35em" id="img-7c6a05bc-36">0.3</text>
    <text x="16.18" y="7" text-anchor="end" dy="0.35em" id="img-7c6a05bc-37">0.4</text>
  </g>
  <g font-size="3.88" font-family="'PT Sans','Helvetica Neue','Helvetica',sans-serif" fill="#564A55" stroke="#000000" stroke-opacity="0.000" id="img-7c6a05bc-38">
    <text x="9.16" y="43.66" text-anchor="end" dy="0.35em" id="img-7c6a05bc-39">Y</text>
  </g>
</g>
<defs>
  <clipPath id="img-7c6a05bc-13">
  <path d="M17.18,5 L 118.99 5 118.99 82.32 17.18 82.32" />
</clipPath>
</defs>
</svg>
