<?xml version="1.0" encoding="UTF-8"?>
<svg xmlns="http://www.w3.org/2000/svg"
     xmlns:xlink="http://www.w3.org/1999/xlink"
     xmlns:gadfly="http://www.gadflyjl.org/ns"
     version="1.2"
     width="152.4mm" height="101.6mm" viewBox="0 0 152.4 101.6"
     stroke="none"
     fill="#000000"
     stroke-width="0.3"
     font-size="3.88"
>
<g class="plotroot xscalable yscalable" id="img-45e4f01c-1">
  <g font-size="3.88" font-family="'PT Sans','Helvetica Neue','Helvetica',sans-serif" fill="#564A55" stroke="#000000" stroke-opacity="0.000" id="img-45e4f01c-2">
    <text x="68.92" y="89.99" text-anchor="middle" dy="0.6em">X</text>
  </g>
  <g class="guide xlabels" font-size="2.82" font-family="'PT Sans Caption','Helvetica Neue','Helvetica',sans-serif" fill="#6C606B" id="img-45e4f01c-3">
    <text x="20.86" y="83.32" text-anchor="middle" dy="0.6em">0</text>
    <text x="68.92" y="83.32" text-anchor="middle" dy="0.6em">50</text>
    <text x="116.99" y="83.32" text-anchor="middle" dy="0.6em">100</text>
  </g>
  <g class="guide colorkey" id="img-45e4f01c-4">
    <g fill="#4C404B" font-size="2.82" font-family="'PT Sans','Helvetica Neue','Helvetica',sans-serif" id="img-45e4f01c-5">
      <text x="122.81" y="43.66" dy="0.35em" id="img-45e4f01c-6" class="color_Source_1">Source 1</text>
      <text x="122.81" y="47.28" dy="0.35em" id="img-45e4f01c-7" class="color_Source_2">Source 2</text>
    </g>
    <g stroke="#000000" stroke-opacity="0.000" id="img-45e4f01c-8">
      <rect x="119.99" y="42.75" width="1.81" height="1.81" id="img-45e4f01c-9" class="color_Source_1" fill="#00BFFF"/>
      <rect x="119.99" y="46.38" width="1.81" height="1.81" id="img-45e4f01c-10" class="color_Source_2" fill="#D4CA3A"/>
    </g>
    <g fill="#362A35" font-size="3.88" font-family="'PT Sans','Helvetica Neue','Helvetica',sans-serif" stroke="#000000" stroke-opacity="0.000" id="img-45e4f01c-11">
      <text x="119.99" y="39.84" id="img-45e4f01c-12">Unmixed sources</text>
    </g>
  </g>
<g clip-path="url(#img-45e4f01c-13)">
  <g id="img-45e4f01c-14">
    <g pointer-events="visible" opacity="1" fill="#000000" fill-opacity="0.000" stroke="#000000" stroke-opacity="0.000" class="guide background" id="img-45e4f01c-15">
      <rect x="18.86" y="5" width="100.14" height="77.32" id="img-45e4f01c-16"/>
    </g>
    <g class="guide ygridlines xfixed" stroke-dasharray="0.5,0.5" stroke-width="0.2" stroke="#D0D0E0" id="img-45e4f01c-17">
      <path fill="none" d="M18.86,80.32 L 118.99 80.32" id="img-45e4f01c-18"/>
      <path fill="none" d="M18.86,55.88 L 118.99 55.88" id="img-45e4f01c-19"/>
      <path fill="none" d="M18.86,31.44 L 118.99 31.44" id="img-45e4f01c-20"/>
      <path fill="none" d="M18.86,7 L 118.99 7" id="img-45e4f01c-21"/>
    </g>
    <g class="guide xgridlines yfixed" stroke-dasharray="0.5,0.5" stroke-width="0.2" stroke="#D0D0E0" id="img-45e4f01c-22">
      <path fill="none" d="M20.86,5 L 20.86 82.32" id="img-45e4f01c-23"/>
      <path fill="none" d="M68.92,5 L 68.92 82.32" id="img-45e4f01c-24"/>
      <path fill="none" d="M116.99,5 L 116.99 82.32" id="img-45e4f01c-25"/>
    </g>
    <g class="plotpanel" id="img-45e4f01c-26">
      <g stroke-width="0.3" fill="#000000" fill-opacity="0.000" class="geometry color_Source_2" stroke-dasharray="none" stroke="#D4CA3A" id="img-45e4f01c-27">
        <path fill="none" d="M21.82,46.76 L 22.78 43.04 23.74 39.44 24.7 36.03 25.66 32.89 26.62 30.11 27.59 27.79 28.55 26.01 29.51 24.89 30.47 24.5 31.43 24.92 32.39 26.18 33.35 28.28 34.32 31.18 35.28 34.79 36.24 38.98 37.2 43.58 38.16 48.36 39.12 53.09 40.08 57.51 41.05 61.37 42.01 64.42 42.97 66.48 43.93 67.38 44.89 67.02 45.85 65.38 46.81 62.51 47.77 58.51 48.74 53.57 49.7 47.94 50.66 41.9 51.62 35.75 52.58 29.81 53.54 24.39 54.5 19.77 55.47 17.47 56.43 15.72 57.39 13.43 58.35 12.94 59.31 14.48 60.27 17.21 61.23 20.96 62.2 25.52 63.16 30.65 64.12 36.08 65.08 41.57 66.04 46.88 67 51.8 67.96 56.14 68.92 59.79 69.89 62.67 70.85 64.73 71.81 65.98 72.77 66.46 73.73 66.25 74.69 65.42 75.65 64.08 76.62 62.31 77.58 60.21 78.54 57.87 79.5 55.36 80.46 52.75 81.42 50.09 82.38 47.44 83.34 44.85 84.31 42.39 85.27 40.12 86.23 38.12 87.19 36.49 88.15 35.31 89.11 34.67 90.07 34.69 91.04 35.42 92 36.94 92.96 39.28 93.92 42.42 94.88 47.86 95.84 53.63 96.8 58.18 97.77 61.33 98.73 66.83 99.69 72.19 100.65 77.16 101.61 80.32 102.57 80.32 103.53 80.32 104.49 80.32 105.46 80.32 106.42 80.32 107.38 80.32 108.34 79.85 109.3 74.93 110.26 69.31 111.22 63.26 112.19 57.11 113.15 51.17 114.11 45.74 115.07 44.78 116.03 43.26 116.99 41.06" id="img-45e4f01c-28"/>
      </g>
      <g stroke-width="0.3" fill="#000000" fill-opacity="0.000" class="geometry color_Source_1" stroke-dasharray="none" stroke="#00BFFF" id="img-45e4f01c-29">
        <path fill="none" d="M21.82,46.24 L 22.78 39.41 23.74 33.93 24.7 30.32 25.66 28.91 26.62 29.87 27.59 33.09 28.55 38.31 29.51 45.04 30.47 52.66 31.43 60.46 32.39 67.72 33.35 73.74 34.32 77.93 35.28 79.86 36.24 79.31 37.2 76.27 38.16 70.95 39.12 63.77 40.08 55.34 41.05 46.35 42.01 37.57 42.97 29.77 43.93 23.63 44.89 19.69 45.85 18.3 46.81 19.6 47.77 23.5 48.74 29.69 49.7 37.64 50.66 46.69 51.62 56.08 52.58 65.02 53.54 72.75 54.5 78.63 55.47 80.32 56.43 80.32 57.39 80.32 58.35 77.14 59.31 70.8 60.27 62.92 61.23 54.21 62.2 45.43 63.16 37.33 64.12 30.63 65.08 25.87 66.04 23.45 67 23.56 67.96 26.13 68.92 30.91 69.89 37.44 70.85 45.11 71.81 53.21 72.77 61.01 73.73 67.81 74.69 73.02 75.65 76.18 76.62 77.04 77.58 75.56 78.54 71.91 79.5 66.48 80.46 59.81 81.42 52.54 82.38 45.39 83.34 39.06 84.31 34.18 85.27 31.23 86.23 30.53 87.19 32.18 88.15 36.06 89.11 41.86 90.07 49.08 91.04 57.06 92 65.1 92.96 72.46 93.92 78.46 94.88 80.32 95.84 80.32 96.8 80.32 97.77 80.32 98.73 74.85 99.69 67.61 100.65 59.2 101.61 51.14 102.57 44.95 103.53 39.11 104.49 34.18 105.46 30.61 106.42 28.72 107.38 28.64 108.34 30.64 109.3 37.21 110.26 45.43 111.22 54.6 112.19 63.97 113.15 72.73 114.11 80.16 115.07 80.32 116.03 80.32 116.99 80.32" id="img-45e4f01c-30"/>
      </g>
    </g>
  </g>
</g>
  <g class="guide ylabels" font-size="2.82" font-family="'PT Sans Caption','Helvetica Neue','Helvetica',sans-serif" fill="#6C606B" id="img-45e4f01c-31">
    <text x="17.86" y="80.32" text-anchor="end" dy="0.35em" id="img-45e4f01c-32">0.00</text>
    <text x="17.86" y="55.88" text-anchor="end" dy="0.35em" id="img-45e4f01c-33">0.01</text>
    <text x="17.86" y="31.44" text-anchor="end" dy="0.35em" id="img-45e4f01c-34">0.02</text>
    <text x="17.86" y="7" text-anchor="end" dy="0.35em" id="img-45e4f01c-35">0.03</text>
  </g>
  <g font-size="3.88" font-family="'PT Sans','Helvetica Neue','Helvetica',sans-serif" fill="#564A55" stroke="#000000" stroke-opacity="0.000" id="img-45e4f01c-36">
    <text x="9.16" y="43.66" text-anchor="end" dy="0.35em" id="img-45e4f01c-37">Y</text>
  </g>
</g>
<defs>
  <clipPath id="img-45e4f01c-13">
  <path d="M18.86,5 L 118.99 5 118.99 82.32 18.86 82.32" />
</clipPath>
</defs>
</svg>
